<svg width="30" height="30" viewBox="0 0 30 30" fill="none" xmlns="http://www.w3.org/2000/svg">
<circle cx="15" cy="15" r="14.5" stroke="url(#paint0_linear_143_426)" style="mix-blend-mode:overlay"/>
<circle cx="15" cy="15" r="10" fill="#D9D9D9" style="mix-blend-mode:overlay"/>
<path d="M19.1256 11.2893C19.8981 11.2458 20.4252 12.0586 20.0705 12.7462L17.4385 17.8481C17.2761 18.1628 16.9595 18.3682 16.6059 18.3881L10.8742 18.7107C10.1016 18.7542 9.57453 17.9414 9.92928 17.2538L12.5613 12.1519C12.7237 11.8372 13.0403 11.6318 13.3938 11.6119L19.1256 11.2893Z" fill="#1D203E" fill-opacity="0.3"/>
<path d="M15.544 15.839C15.0807 16.1395 14.4614 16.0075 14.1609 15.5442C13.8604 15.0808 13.9924 14.4615 14.4557 14.161C14.9191 13.8605 15.5383 13.9925 15.8389 14.4559C16.1394 14.9192 16.0074 15.5385 15.544 15.839Z" fill="#D9D9D9" style="mix-blend-mode:overlay"/>
<defs>
<linearGradient id="paint0_linear_143_426" x1="25" y1="-3" x2="4.5" y2="39.5" gradientUnits="userSpaceOnUse">
<stop stop-color="#FCA6EF" stop-opacity="0.8"/>
<stop offset="1" stop-color="#7758D1"/>
</linearGradient>
</defs>
</svg>
