<svg width="30" height="30" viewBox="0 0 30 30" fill="none" xmlns="http://www.w3.org/2000/svg">
<circle cx="15" cy="15" r="15" fill="#0A0B0B" fill-opacity="0.3"/>
<path fill-rule="evenodd" clip-rule="evenodd" d="M5.125 15.5C5.125 15.0685 5.47478 14.7188 5.90625 14.7188H23.0938C23.5252 14.7188 23.875 15.0685 23.875 15.5C23.875 15.9315 23.5252 16.2812 23.0938 16.2812H5.90625C5.47478 16.2812 5.125 15.9315 5.125 15.5Z" fill="#F7CBFD" style="mix-blend-mode:overlay"/>
<path fill-rule="evenodd" clip-rule="evenodd" d="M14.5 6.125C14.9315 6.125 15.2812 6.47478 15.2812 6.90625V24.0938C15.2812 24.5252 14.9315 24.875 14.5 24.875C14.0685 24.875 13.7188 24.5252 13.7188 24.0938V6.90625C13.7188 6.47478 14.0685 6.125 14.5 6.125Z" fill="#F7CBFD" style="mix-blend-mode:overlay"/>
</svg>
