<svg width="30" height="30" viewBox="0 0 30 30" fill="none" xmlns="http://www.w3.org/2000/svg">
<circle cx="15" cy="15" r="15" fill="#0A0B0B" fill-opacity="0.3"/>
<path d="M12.67 14.662C12.67 15.298 12.564 15.882 12.352 16.414C12.14 16.946 11.842 17.404 11.458 17.788C11.074 18.172 10.612 18.47 10.072 18.682C9.532 18.894 8.932 19 8.272 19H4.966V10.324H8.272C8.932 10.324 9.532 10.432 10.072 10.648C10.612 10.86 11.074 11.158 11.458 11.542C11.842 11.922 12.14 12.378 12.352 12.91C12.564 13.442 12.67 14.026 12.67 14.662ZM11.014 14.662C11.014 14.186 10.95 13.76 10.822 13.384C10.698 13.004 10.516 12.684 10.276 12.424C10.04 12.16 9.752 11.958 9.412 11.818C9.076 11.678 8.696 11.608 8.272 11.608H6.586V17.716H8.272C8.696 17.716 9.076 17.646 9.412 17.506C9.752 17.366 10.04 17.166 10.276 16.906C10.516 16.642 10.698 16.322 10.822 15.946C10.95 15.566 11.014 15.138 11.014 14.662ZM23.5029 10.324V19H22.0809V13.396C22.0809 13.172 22.0929 12.93 22.1169 12.67L19.4949 17.596C19.3709 17.832 19.1809 17.95 18.9249 17.95H18.6969C18.4409 17.95 18.2509 17.832 18.1269 17.596L15.4749 12.652C15.4869 12.784 15.4969 12.914 15.5049 13.042C15.5129 13.17 15.5169 13.288 15.5169 13.396V19H14.0949V10.324H15.3129C15.3849 10.324 15.4469 10.326 15.4989 10.33C15.5509 10.334 15.5969 10.344 15.6369 10.36C15.6809 10.376 15.7189 10.402 15.7509 10.438C15.7869 10.474 15.8209 10.522 15.8529 10.582L18.4509 15.4C18.5189 15.528 18.5809 15.66 18.6369 15.796C18.6969 15.932 18.7549 16.072 18.8109 16.216C18.8669 16.068 18.9249 15.926 18.9849 15.79C19.0449 15.65 19.1089 15.516 19.1769 15.388L21.7389 10.582C21.7709 10.522 21.8049 10.474 21.8409 10.438C21.8769 10.402 21.9149 10.376 21.9549 10.36C21.9989 10.344 22.0469 10.334 22.0989 10.33C22.1509 10.326 22.2129 10.324 22.2849 10.324H23.5029Z" fill="#F7CBFD" style="mix-blend-mode:overlay"/>
</svg>
