<svg width="58" height="44" viewBox="0 0 58 44" fill="none" xmlns="http://www.w3.org/2000/svg">
<path d="M5.48679 20.3309C5.29679 20.2609 5.09679 20.1709 4.88679 20.0609C4.67679 19.9609 4.49679 19.8259 4.34679 19.6559C4.20679 19.4859 4.13679 19.2809 4.13679 19.0409C4.13679 18.9309 4.15179 18.8209 4.18179 18.7109C4.21179 18.5909 4.27179 18.4959 4.36179 18.4259C4.37179 18.4659 4.37179 18.5059 4.36179 18.5459C4.36179 18.5859 4.36179 18.6309 4.36179 18.6809C4.36179 19.0009 4.47679 19.2359 4.70679 19.3859C4.93679 19.5359 5.19179 19.6109 5.47179 19.6109C5.79179 19.6109 6.08679 19.5309 6.35679 19.3709C6.63679 19.2109 6.87179 19.0209 7.06179 18.8009V18.6959H7.07679L7.16679 18.5759C7.21679 18.5559 7.26179 18.5309 7.30179 18.5009C7.34179 18.4709 7.37679 18.4409 7.40679 18.4109V18.2909C7.54679 18.2209 7.67179 18.1059 7.78179 17.9459C7.90179 17.7759 8.00179 17.6259 8.08179 17.4959C8.16179 17.4959 8.21679 17.4509 8.24679 17.3609C8.27679 17.2609 8.29679 17.1809 8.30679 17.1209L8.32179 17.1059L8.30679 17.0759C8.09679 17.0759 7.88179 17.1009 7.66179 17.1509C7.45179 17.1909 7.23679 17.2209 7.01679 17.2409C6.82679 17.4009 6.61179 17.4809 6.37179 17.4809C6.26179 17.4809 6.14679 17.4509 6.02679 17.3909C5.90679 17.3309 5.84679 17.2359 5.84679 17.1059C5.84679 17.0359 5.87179 16.9509 5.92179 16.8509C5.98179 16.7509 6.05179 16.6609 6.13179 16.5809C6.22179 16.4909 6.30179 16.4459 6.37179 16.4459L6.40179 16.5359H6.64179C6.75179 16.5359 6.85679 16.5309 6.95679 16.5209C7.06679 16.5109 7.17179 16.5059 7.27179 16.5059L7.40679 16.4309L7.54179 16.5059C7.59179 16.4659 7.69179 16.4459 7.84179 16.4459C7.98179 16.4459 8.13679 16.4559 8.30679 16.4759C8.48679 16.4959 8.62179 16.5009 8.71179 16.4909C8.79179 16.3209 8.87679 16.1609 8.96679 16.0109C9.05679 15.8509 9.13179 15.6909 9.19179 15.5309L9.29679 15.4409C9.38679 15.1009 9.49679 14.7709 9.62679 14.4509C9.75679 14.1209 9.87679 13.7909 9.98679 13.4609H9.46179C9.35179 13.4609 9.23679 13.4659 9.11679 13.4759C9.00679 13.4859 8.90179 13.5159 8.80179 13.5659L8.62179 13.5509C8.48179 13.5309 8.34179 13.5459 8.20179 13.5959C8.07179 13.6459 7.94679 13.7009 7.82679 13.7609L7.76679 13.7459L7.72179 13.7909C7.19179 13.8809 6.68179 14.0859 6.19179 14.4059C5.71179 14.7259 5.30679 15.0959 4.97679 15.5159L5.12679 15.6059L5.39679 15.5759L5.44179 15.6209C5.39179 15.6709 5.33179 15.7109 5.26179 15.7409C5.19179 15.7709 5.12179 15.7959 5.05179 15.8159L4.93179 15.7109L4.81179 15.7559C4.78179 15.6959 4.76679 15.6409 4.76679 15.5909C4.76679 15.4109 4.85179 15.2109 5.02179 14.9909C5.20179 14.7709 5.35179 14.5959 5.47179 14.4659V14.3759C5.68179 14.2059 5.94679 14.0359 6.26679 13.8659C6.59679 13.6859 6.95179 13.5259 7.33179 13.3859C7.71179 13.2459 8.09179 13.1359 8.47179 13.0559C8.85179 12.9659 9.19679 12.9209 9.50679 12.9209C9.57679 12.9209 9.64179 12.9259 9.70179 12.9359C9.76179 12.9359 9.82179 12.9409 9.88179 12.9509C9.92179 12.9209 9.96679 12.9009 10.0168 12.8909C10.0668 12.8809 10.1118 12.8709 10.1518 12.8609L10.0768 12.8459C10.1568 12.7159 10.1968 12.5809 10.1968 12.4409C10.2168 12.4309 10.2368 12.4209 10.2568 12.4109C10.2868 12.4009 10.3118 12.3959 10.3318 12.3959C10.4418 12.3959 10.5868 12.4059 10.7668 12.4259C10.9568 12.4459 11.1218 12.4959 11.2618 12.5759C11.4118 12.6459 11.4768 12.7659 11.4568 12.9359C11.6268 12.9159 11.7968 12.9059 11.9668 12.9059C12.1368 12.8959 12.3068 12.8909 12.4768 12.8909C12.7768 12.8909 13.0768 12.9109 13.3768 12.9509C13.6868 12.9909 13.9768 13.0959 14.2468 13.2659L14.2018 13.3259C14.2318 13.4259 14.2918 13.4909 14.3818 13.5209L14.4268 13.6409L14.3218 13.7159L14.3818 13.8809C14.3118 14.0709 14.2418 14.1959 14.1718 14.2559C14.1018 14.3159 13.9618 14.3559 13.7518 14.3759L13.6318 14.3009L13.1218 14.5259L13.1068 14.5109L13.1668 14.3759V14.3609C13.1068 14.4109 13.0418 14.4559 12.9718 14.4959C12.9018 14.5359 12.8268 14.5609 12.7468 14.5709L12.7018 14.5409L12.7468 14.4959C12.9368 14.4359 13.0968 14.3409 13.2268 14.2109C13.3568 14.0809 13.4718 13.9359 13.5718 13.7759L13.5418 13.5359L13.1368 13.3409L13.1218 13.2959C12.9918 13.2559 12.8568 13.2359 12.7168 13.2359C12.5768 13.2259 12.4368 13.2209 12.2968 13.2209C12.1568 13.2209 12.0168 13.2359 11.8768 13.2659C11.7468 13.2959 11.6118 13.3159 11.4718 13.3259L11.5318 13.4459C11.5218 13.4859 11.5018 13.5559 11.4718 13.6559C11.4418 13.7559 11.4018 13.8109 11.3518 13.8209L11.1718 13.7009L11.1568 13.7159C11.1468 13.8459 11.1118 13.9759 11.0518 14.1059C10.9918 14.2259 10.9218 14.3359 10.8418 14.4359C10.6718 14.4459 10.5868 14.5409 10.5868 14.7209L10.6768 14.7809L10.7368 14.6909L10.7968 14.6759L10.8268 14.7209C10.7568 14.8309 10.6818 14.9109 10.6018 14.9609C10.5218 14.9609 10.4518 14.9909 10.3918 15.0509C10.3418 15.1109 10.2768 15.1459 10.1968 15.1559C10.1168 15.1959 10.0618 15.2509 10.0318 15.3209C10.0118 15.3909 9.94679 15.4559 9.83679 15.5159L9.85179 15.5459C9.81179 15.5859 9.74679 15.6659 9.65679 15.7859C9.57679 15.8959 9.50179 16.0109 9.43179 16.1309C9.36179 16.2409 9.32179 16.3259 9.31179 16.3859H9.34179L9.38679 16.4759C9.48679 16.4459 9.58179 16.4309 9.67179 16.4309C9.76179 16.4209 9.85679 16.4159 9.95679 16.4159C10.0568 16.4159 10.1518 16.4159 10.2418 16.4159C10.3318 16.4159 10.4218 16.4109 10.5118 16.4009C11.5118 16.2309 12.4918 16.0959 13.4518 15.9959L13.5268 15.9659L13.5568 15.9959C13.5268 16.0759 13.3968 16.1509 13.1668 16.2209C12.9468 16.2909 12.6768 16.3559 12.3568 16.4159C12.0368 16.4659 11.7118 16.5109 11.3818 16.5509C11.0518 16.5909 10.7518 16.6209 10.4818 16.6409C10.2218 16.6609 10.0368 16.6709 9.92679 16.6709C9.92679 16.7109 9.84679 16.7559 9.68679 16.8059C9.52679 16.8559 9.35679 16.9109 9.17679 16.9709C9.00679 17.0209 8.88679 17.0909 8.81679 17.1809V17.3759L8.74179 17.3459C8.66179 17.3559 8.60679 17.3959 8.57679 17.4659C8.54679 17.5259 8.52679 17.5959 8.51679 17.6759C8.41679 17.7359 8.32179 17.8109 8.23179 17.9009C8.14179 17.9809 8.04679 18.0609 7.94679 18.1409L7.96179 18.3059H7.90179C7.88179 18.3759 7.82179 18.4459 7.72179 18.5159C7.63179 18.5759 7.55679 18.6309 7.49679 18.6809L7.42179 18.8159L7.49679 18.8759L7.39179 18.9359C7.30179 19.0659 7.15679 19.2309 6.95679 19.4309C6.76679 19.6309 6.60179 19.7609 6.46179 19.8209C6.34179 19.9709 6.19679 20.0809 6.02679 20.1509C5.85679 20.2209 5.67679 20.2809 5.48679 20.3309ZM10.0468 14.6309H10.2118L10.2268 14.5559L10.2118 14.4959C10.1618 14.5059 10.1068 14.5509 10.0468 14.6309ZM10.4218 14.6009L10.4668 14.5409L10.4368 14.5109H10.4068L10.3768 14.5559L10.4218 14.6009ZM10.0768 14.8709L10.0618 14.7959L10.0018 14.8409L10.0768 14.8709ZM10.1218 15.1409L10.1668 15.1259L10.1818 15.0509L10.1368 15.0359L10.1068 15.1259L10.1218 15.1409ZM5.60679 15.5309L5.63679 15.4409L5.68179 15.4559L5.69679 15.5159L5.68179 15.5309H5.60679ZM15.1974 20.2859L14.8974 19.9409C14.8474 19.7409 14.7924 19.5359 14.7324 19.3259C14.6824 19.1259 14.6474 18.9209 14.6274 18.7109L14.7024 18.4259L14.6724 18.4109C14.7124 18.3009 14.7524 18.1909 14.7924 18.0809C14.8424 17.9609 14.8674 17.8459 14.8674 17.7359C14.8174 17.7859 14.7624 17.8359 14.7024 17.8859C14.6524 17.9359 14.6124 17.9959 14.5824 18.0659C14.5424 18.1059 14.5074 18.1559 14.4774 18.2159C14.4474 18.2759 14.4074 18.3259 14.3574 18.3659L14.3424 18.5009C14.2024 18.5309 14.0624 18.6009 13.9224 18.7109C13.7924 18.8109 13.6624 18.9109 13.5324 19.0109C13.4024 19.1009 13.2624 19.1459 13.1124 19.1459C13.0424 19.1459 12.9524 19.1409 12.8424 19.1309C12.7424 19.1109 12.6674 19.0809 12.6174 19.0409C12.4874 19.0109 12.3924 18.9759 12.3324 18.9359C12.2824 18.8859 12.2424 18.7959 12.2124 18.6659L12.2724 18.4709L12.2274 18.3509C12.2774 18.1909 12.3124 18.0759 12.3324 18.0059C12.3624 17.9359 12.4024 17.8759 12.4524 17.8259C12.5124 17.7759 12.6074 17.7009 12.7374 17.6009C12.7474 17.5509 12.7724 17.5159 12.8124 17.4959C12.8624 17.4659 12.9074 17.4459 12.9474 17.4359L12.9624 17.3609L13.1124 17.1809L13.1574 17.2109L13.2474 17.0759C13.3174 17.0259 13.3874 16.9959 13.4574 16.9859C13.5374 16.9659 13.6124 16.9359 13.6824 16.8959C13.7024 16.7859 13.7674 16.7209 13.8774 16.7009C13.9974 16.6709 14.0674 16.6159 14.0874 16.5359H14.1474L14.4024 16.3709L14.4924 16.4159L14.7024 16.2809C14.7624 16.2809 14.8174 16.2759 14.8674 16.2659C14.9274 16.2559 14.9824 16.2509 15.0324 16.2509L15.0924 16.2809C14.8924 16.3509 14.6624 16.4659 14.4024 16.6259C14.1424 16.7759 13.8874 16.9559 13.6374 17.1659C13.3974 17.3659 13.1974 17.5859 13.0374 17.8259C12.8774 18.0659 12.7974 18.3059 12.7974 18.5459C12.7974 18.7359 12.8974 18.8309 13.0974 18.8309C13.2774 18.8309 13.4624 18.7759 13.6524 18.6659C13.8524 18.5559 14.0324 18.4209 14.1924 18.2609C14.3524 18.1009 14.4674 17.9459 14.5374 17.7959L14.7924 17.5859C14.8124 17.5359 14.8374 17.5009 14.8674 17.4809C14.8974 17.4609 14.9174 17.4259 14.9274 17.3759C14.9974 17.3659 15.0474 17.3059 15.0774 17.1959C15.1074 17.0859 15.1424 16.9659 15.1824 16.8359C15.2224 16.6959 15.2774 16.5759 15.3474 16.4759C15.4174 16.3759 15.5224 16.3259 15.6624 16.3259C15.7724 16.3259 15.8974 16.3759 16.0374 16.4759C16.1774 16.5659 16.2474 16.6759 16.2474 16.8059C16.2474 16.8759 16.1874 17.0109 16.0674 17.2109C15.9474 17.4109 15.8074 17.6459 15.6474 17.9159C15.4974 18.1859 15.3624 18.4659 15.2424 18.7559C15.1224 19.0459 15.0624 19.3209 15.0624 19.5809C15.0624 19.6909 15.0824 19.8009 15.1224 19.9109C15.1724 20.0209 15.2024 20.1309 15.2124 20.2409L15.1974 20.2859ZM16.4322 19.4759C16.3222 19.4759 16.2422 19.4259 16.1922 19.3259C16.1522 19.2359 16.1322 19.1459 16.1322 19.0559C16.1322 18.7959 16.1922 18.5259 16.3122 18.2459C16.4422 17.9659 16.5672 17.7109 16.6872 17.4809C16.8172 17.2409 16.8822 17.0559 16.8822 16.9259C16.8822 16.8659 16.8472 16.8359 16.7772 16.8359C16.7472 16.8359 16.7022 16.8459 16.6422 16.8659V16.8059L17.0022 16.3859V16.3709C17.0522 16.3209 17.0972 16.2709 17.1372 16.2209C17.1772 16.1709 17.2172 16.1259 17.2572 16.0859L17.3922 15.9959C17.5022 16.0059 17.6072 16.0359 17.7072 16.0859C17.8172 16.1259 17.8872 16.2109 17.9172 16.3409L17.9022 16.3559C17.9122 16.4359 17.8772 16.5209 17.7972 16.6109C17.7172 16.7009 17.6472 16.7709 17.5872 16.8209C17.5272 16.9309 17.4572 17.0359 17.3772 17.1359C17.3072 17.2259 17.2422 17.3259 17.1822 17.4359V17.5859L17.1222 17.7059H17.0922C17.0622 17.7659 17.0322 17.8309 17.0022 17.9009C16.9822 17.9709 16.9722 18.0459 16.9722 18.1259L17.0472 18.2459C17.0772 18.2159 17.1322 18.1709 17.2122 18.1109C17.3022 18.0409 17.3822 17.9709 17.4522 17.9009C17.5222 17.8309 17.5572 17.7809 17.5572 17.7509L17.7222 17.6009C17.7722 17.4509 17.8822 17.2909 18.0522 17.1209C18.2222 16.9409 18.3672 16.8009 18.4872 16.7009L18.5322 16.5809C18.5922 16.5509 18.6522 16.5159 18.7122 16.4759C18.7822 16.4359 18.8522 16.4159 18.9222 16.4159C19.0022 16.4159 19.0722 16.4359 19.1322 16.4759C19.2022 16.5159 19.2722 16.5559 19.3422 16.5959C19.3422 16.6359 19.3422 16.6859 19.3422 16.7459C19.3522 16.7959 19.3572 16.8459 19.3572 16.8959C19.3572 17.0559 19.3122 17.2059 19.2222 17.3459C19.1322 17.4859 19.0422 17.6309 18.9522 17.7809C18.8622 17.9309 18.8172 18.1159 18.8172 18.3359C18.8172 18.3659 18.8172 18.4359 18.8172 18.5459C18.8272 18.6459 18.8422 18.7459 18.8622 18.8459C18.8922 18.9359 18.9372 18.9809 18.9972 18.9809L19.4772 18.7259H19.5072C19.5272 18.6659 19.5622 18.6109 19.6122 18.5609C19.6722 18.5109 19.7372 18.4859 19.8072 18.4859L19.8222 18.5009C19.8222 18.5509 19.7772 18.6259 19.6872 18.7259C19.6072 18.8259 19.5172 18.9209 19.4172 19.0109C19.3272 19.1009 19.2622 19.1659 19.2222 19.2059C19.1822 19.2159 19.1372 19.2259 19.0872 19.2359C19.0372 19.2359 18.9872 19.2459 18.9372 19.2659L18.8922 19.1909C18.6722 19.1709 18.4872 19.0959 18.3372 18.9659C18.1972 18.8259 18.1272 18.6459 18.1272 18.4259C18.1272 18.3559 18.1422 18.2309 18.1722 18.0509C18.2022 17.8609 18.2372 17.6759 18.2772 17.4959C18.3272 17.3159 18.3622 17.1909 18.3822 17.1209C18.2622 17.2009 18.1472 17.3259 18.0372 17.4959C17.9272 17.6559 17.8272 17.7909 17.7372 17.9009C17.6372 17.9409 17.5322 18.0459 17.4222 18.2159C17.3222 18.3759 17.2172 18.5559 17.1072 18.7559C16.9972 18.9459 16.8872 19.1159 16.7772 19.2659C16.6672 19.4059 16.5522 19.4759 16.4322 19.4759ZM19.9238 19.9259C19.7638 19.9259 19.6338 19.8559 19.5338 19.7159C19.4338 19.5859 19.3838 19.4409 19.3838 19.2809C19.3838 19.1609 19.4188 18.9809 19.4888 18.7409C19.5688 18.4909 19.6638 18.2309 19.7738 17.9609C19.8838 17.6809 19.9988 17.4309 20.1188 17.2109C20.2388 16.9909 20.3488 16.8459 20.4488 16.7759C20.5888 16.5559 20.7138 16.3509 20.8238 16.1609C20.6638 16.1909 20.5038 16.2259 20.3438 16.2659C20.1838 16.2959 20.0338 16.3409 19.8938 16.4009C19.8238 16.4909 19.7438 16.5359 19.6538 16.5359C19.6238 16.5159 19.5888 16.4959 19.5488 16.4759C19.5088 16.4559 19.4738 16.4309 19.4438 16.4009L19.4588 16.3709H19.4438V16.3409C19.4438 16.2909 19.4338 16.2459 19.4138 16.2059C19.4038 16.1559 19.3938 16.1109 19.3838 16.0709C19.3738 16.0609 19.3688 16.0359 19.3688 15.9959C19.3688 15.8659 19.4288 15.7809 19.5488 15.7409C19.6788 15.7009 19.8088 15.6809 19.9388 15.6809C20.1288 15.6809 20.2588 15.6959 20.3288 15.7259L20.4788 15.6959H20.8538C20.9238 15.6959 20.9888 15.6959 21.0488 15.6959C21.1088 15.6959 21.1688 15.6909 21.2288 15.6809L21.2888 15.5909L21.2738 15.5309C21.3038 15.4609 21.3688 15.3459 21.4688 15.1859C21.5688 15.0259 21.6738 14.8559 21.7838 14.6759C21.8938 14.4959 21.9888 14.3409 22.0688 14.2109C22.1588 14.0709 22.2038 14.0009 22.2038 14.0009C22.2038 13.9409 22.2538 13.9059 22.3538 13.8959C22.4538 13.8859 22.5188 13.8809 22.5488 13.8809C22.6588 13.8809 22.8088 13.9159 22.9988 13.9859C23.1888 14.0459 23.2838 14.1509 23.2838 14.3009C23.2838 14.3909 23.2488 14.4659 23.1788 14.5259C23.1088 14.5759 23.0338 14.6109 22.9538 14.6309V14.6459C22.9538 14.7059 22.9088 14.7759 22.8188 14.8559C22.7388 14.9359 22.6438 15.0059 22.5338 15.0659C22.4238 15.1259 22.3388 15.1659 22.2788 15.1859C22.2488 15.1959 22.2088 15.2359 22.1588 15.3059C22.1188 15.3659 22.0888 15.4109 22.0688 15.4409V15.5009C22.0288 15.5309 21.9838 15.5659 21.9338 15.6059C21.8938 15.6359 21.8588 15.6759 21.8288 15.7259C21.8788 15.7359 21.9288 15.7409 21.9788 15.7409C22.0288 15.7409 22.0788 15.7409 22.1288 15.7409C22.2088 15.7409 22.2838 15.7409 22.3538 15.7409C22.4338 15.7409 22.5088 15.7459 22.5788 15.7559L23.0438 15.8159C22.9238 15.9159 22.7888 15.9759 22.6388 15.9959C22.4888 16.0059 22.3338 16.0109 22.1738 16.0109C22.0238 16.0009 21.8788 16.0259 21.7388 16.0859C21.6688 16.1059 21.5738 16.1659 21.4538 16.2659C21.3438 16.3659 21.2438 16.4759 21.1538 16.5959C21.0638 16.7059 21.0188 16.8009 21.0188 16.8809L20.6738 17.3459C20.5738 17.3959 20.5238 17.4709 20.5238 17.5709C20.5238 17.6709 20.4688 17.7209 20.3588 17.7209L20.1488 18.2009C20.1388 18.2609 20.1238 18.3559 20.1038 18.4859C20.0938 18.6059 20.0538 18.6759 19.9838 18.6959C19.9838 18.8259 19.9788 18.9559 19.9688 19.0859C19.9588 19.2059 19.9538 19.3259 19.9538 19.4459L19.9838 19.5059H20.1038C20.3038 19.3059 20.5088 19.1159 20.7188 18.9359C20.9388 18.7459 21.1438 18.5459 21.3338 18.3359L21.4088 18.3059H21.4388L21.5288 18.1859L21.5888 18.1559L21.5738 18.1409L21.6638 18.0659C21.7438 17.9159 21.8738 17.7909 22.0538 17.6909L22.0688 17.7209C22.0688 17.7709 22.0038 17.8809 21.8738 18.0509C21.7438 18.2109 21.5788 18.4009 21.3788 18.6209C21.1888 18.8309 20.9888 19.0359 20.7788 19.2359C20.5788 19.4359 20.3988 19.6009 20.2388 19.7309C20.0788 19.8609 19.9738 19.9259 19.9238 19.9259ZM22.9046 18.9509C22.7546 18.9509 22.6296 18.9159 22.5296 18.8459C22.4296 18.7659 22.3396 18.6609 22.2596 18.5309H22.2296L22.2446 18.4109L22.2146 18.4259V18.3359L22.2896 18.2759H22.2596L22.1696 18.2009H22.1996L22.2296 18.1409V18.1109L22.1996 18.0359V18.0059H22.1696L21.9596 17.9009V17.8559C21.8896 17.7859 21.8296 17.7109 21.7796 17.6309C21.7396 17.5409 21.7196 17.4459 21.7196 17.3459C21.7196 17.2059 21.7796 17.0409 21.8996 16.8509C22.0296 16.6609 22.1796 16.4909 22.3496 16.3409C22.5296 16.1909 22.6896 16.1159 22.8296 16.1159C22.8996 16.0459 22.9996 16.0109 23.1296 16.0109L23.1746 15.9659L23.2496 15.9809C23.3596 15.9309 23.4796 15.9159 23.6096 15.9359L23.6246 15.9059H24.4646C24.5446 15.9059 24.6446 15.9259 24.7646 15.9659C24.8946 16.0059 24.9946 16.0359 25.0646 16.0559C25.1546 16.1559 25.2746 16.2359 25.4246 16.2959C25.5746 16.3459 25.6496 16.4559 25.6496 16.6259C25.6496 16.8359 25.5896 17.0359 25.4696 17.2259C25.3496 17.4159 25.2096 17.5659 25.0496 17.6759H25.0346C25.0246 17.7059 24.9746 17.7559 24.8846 17.8259C24.8046 17.8859 24.7146 17.9509 24.6146 18.0209C24.5246 18.0809 24.4646 18.1259 24.4346 18.1559L24.3896 18.2909C24.3196 18.2909 24.2546 18.3159 24.1946 18.3659C24.1346 18.4059 24.1046 18.4609 24.1046 18.5309C24.1246 18.5709 24.1696 18.6059 24.2396 18.6359C24.3096 18.6559 24.3696 18.6659 24.4196 18.6659L24.3596 18.6959C24.0396 18.6959 23.7946 18.7209 23.6246 18.7709C23.4546 18.8109 23.3196 18.8509 23.2196 18.8909C23.1196 18.9309 23.0146 18.9509 22.9046 18.9509ZM23.3096 18.5609C23.6196 18.4109 23.8346 18.2959 23.9546 18.2159C24.0846 18.1259 24.1746 18.0509 24.2246 17.9909C24.2746 17.9209 24.3396 17.8309 24.4196 17.7209C24.4996 17.6109 24.6446 17.4559 24.8546 17.2559V17.2259C24.8146 17.2259 24.7796 17.2209 24.7496 17.2109C24.7596 17.1209 24.7796 17.0359 24.8096 16.9559C24.8496 16.8659 24.8696 16.7709 24.8696 16.6709C24.8696 16.4909 24.7996 16.3459 24.6596 16.2359C24.5296 16.1159 24.3796 16.0559 24.2096 16.0559C24.1196 16.0559 24.0246 16.0659 23.9246 16.0859C23.8346 16.1059 23.7496 16.1309 23.6696 16.1609L23.4746 16.1459C23.3146 16.2059 23.1346 16.2959 22.9346 16.4159C22.7446 16.5359 22.5796 16.6809 22.4396 16.8509C22.2996 17.0109 22.2296 17.1909 22.2296 17.3909C22.2296 17.4909 22.2496 17.5759 22.2896 17.6459L22.3496 17.6609V17.6159L22.4246 17.5709L22.5296 17.3459V17.2859L22.6196 17.1509L22.6496 17.1659L22.6946 17.0759L22.7696 17.0309V17.0159C22.7996 17.0059 22.8296 16.9959 22.8596 16.9859C22.8996 16.9759 22.9346 16.9609 22.9646 16.9409C22.9646 16.8609 22.9996 16.8159 23.0696 16.8059C23.1396 16.7859 23.1796 16.7409 23.1896 16.6709H23.2796L23.3846 16.5509L23.4446 16.5959L23.5796 16.5059H23.7146V16.5509C23.5646 16.5909 23.3996 16.7009 23.2196 16.8809C23.0396 17.0509 22.8896 17.2409 22.7696 17.4509C22.6496 17.6609 22.5946 17.8509 22.6046 18.0209L22.6196 18.2909C22.7296 18.3409 22.8396 18.4009 22.9496 18.4709C23.0596 18.5309 23.1796 18.5609 23.3096 18.5609ZM22.8746 18.6659L22.9646 18.6209L22.6196 18.4559L22.5896 18.4709L22.6496 18.6059L22.8746 18.6659ZM25.7364 19.2809C25.6364 19.2909 25.5514 19.2509 25.4814 19.1609C25.4214 19.0609 25.3914 18.9609 25.3914 18.8609C25.3914 18.8009 25.4014 18.7409 25.4214 18.6809C25.4414 18.6109 25.4614 18.5509 25.4814 18.5009C25.5014 18.5109 25.5114 18.5109 25.5114 18.5009C25.5214 18.4809 25.5314 18.4659 25.5414 18.4559L25.5264 18.2909C25.5464 18.2709 25.5714 18.2259 25.6014 18.1559C25.6414 18.0759 25.6664 18.0259 25.6764 18.0059V17.9909H25.6914L25.7514 18.0209C25.8014 17.9409 25.8564 17.8609 25.9164 17.7809C25.9764 17.7009 25.9964 17.6109 25.9764 17.5109L26.1864 17.2259V17.2109C26.1864 17.1509 26.2114 17.0859 26.2614 17.0159C26.3214 16.9359 26.3514 16.8809 26.3514 16.8509C26.3514 16.7709 26.3164 16.7309 26.2464 16.7309C26.2164 16.7309 26.1814 16.7359 26.1414 16.7459C26.1114 16.7559 26.0814 16.7659 26.0514 16.7759L26.0364 16.7009L26.6364 16.1159V16.0859C26.7464 16.0059 26.8464 15.9209 26.9364 15.8309C27.0264 15.7409 27.1314 15.6609 27.2514 15.5909C27.3614 15.6009 27.4714 15.6259 27.5814 15.6659C27.7014 15.7059 27.7914 15.7709 27.8514 15.8609L27.8664 16.0559V16.0709C27.8564 16.1109 27.7814 16.2159 27.6414 16.3859C27.5014 16.5559 27.3364 16.7459 27.1464 16.9559C26.9564 17.1559 26.7764 17.3459 26.6064 17.5259C26.4464 17.7059 26.3364 17.8259 26.2764 17.8859L26.2314 18.1559C26.1514 18.1659 26.0814 18.2209 26.0214 18.3209C25.9614 18.4109 25.9364 18.4959 25.9464 18.5759C25.9164 18.5859 25.9014 18.6109 25.9014 18.6509C25.9014 18.6809 25.8914 18.6959 25.8714 18.6959C25.8614 18.7359 25.8514 18.7709 25.8414 18.8009C25.8414 18.8309 25.8414 18.8659 25.8414 18.9059V18.9809C25.9214 18.8309 26.0614 18.6309 26.2614 18.3809C26.4614 18.1309 26.6864 17.8809 26.9364 17.6309C27.1964 17.3709 27.4514 17.1559 27.7014 16.9859C27.9514 16.8059 28.1614 16.7159 28.3314 16.7159C28.4514 16.7159 28.5314 16.7909 28.5714 16.9409C28.5414 17.1309 28.4914 17.3209 28.4214 17.5109C28.3514 17.6909 28.3164 17.8809 28.3164 18.0809L28.3464 18.1409L28.7064 17.8859L28.7364 17.8409L28.9614 17.6759C29.0314 17.5659 29.1514 17.4209 29.3214 17.2409C29.4914 17.0609 29.6714 16.9009 29.8614 16.7609C30.0514 16.6109 30.2064 16.5359 30.3264 16.5359C30.3164 16.5159 30.3314 16.5059 30.3714 16.5059C30.5414 16.5059 30.6514 16.5459 30.7014 16.6259C30.7514 16.7059 30.7764 16.8209 30.7764 16.9709C30.7764 17.1209 30.7364 17.2609 30.6564 17.3909C30.5864 17.5109 30.5514 17.6409 30.5514 17.7809C30.5514 17.9109 30.5864 18.0509 30.6564 18.2009C30.7264 18.3509 30.8364 18.4259 30.9864 18.4259C31.0364 18.4259 31.0814 18.4159 31.1214 18.3959C31.1614 18.3659 31.2064 18.3559 31.2564 18.3659C31.3364 18.2859 31.4214 18.2159 31.5114 18.1559C31.6114 18.0859 31.7114 18.0209 31.8114 17.9609L31.9014 18.0209C31.8714 18.0809 31.7914 18.1659 31.6614 18.2759C31.5414 18.3759 31.3964 18.4809 31.2264 18.5909C31.0664 18.6909 30.9114 18.7809 30.7614 18.8609C30.6214 18.9309 30.5164 18.9659 30.4464 18.9659C30.2264 18.9659 30.0714 18.8809 29.9814 18.7109C29.9014 18.5309 29.8464 18.3259 29.8164 18.0959C29.7864 17.8659 29.7364 17.6809 29.6664 17.5409L29.5914 17.4809C29.5114 17.5309 29.3864 17.6159 29.2164 17.7359C29.0564 17.8459 28.9564 17.9409 28.9164 18.0209C28.7964 18.0609 28.6914 18.1459 28.6014 18.2759C28.5214 18.3959 28.4414 18.5309 28.3614 18.6809C28.2814 18.8209 28.1914 18.9459 28.0914 19.0559C27.9914 19.1659 27.8614 19.2209 27.7014 19.2209C27.6314 19.2209 27.5664 19.2059 27.5064 19.1759C27.4564 19.1459 27.4314 19.0909 27.4314 19.0109C27.4314 18.8409 27.4614 18.6859 27.5214 18.5459C27.5914 18.3959 27.6564 18.2459 27.7164 18.0959C27.7864 17.9459 27.8214 17.7859 27.8214 17.6159L27.7314 17.4809C27.6114 17.4809 27.4614 17.5509 27.2814 17.6909C27.1014 17.8209 26.9114 17.9859 26.7114 18.1859C26.5214 18.3759 26.3464 18.5659 26.1864 18.7559C26.0364 18.9459 25.9314 19.0909 25.8714 19.1909V19.2659L25.7364 19.2809Z" fill="#F7CBFD"/>
<path d="M36.7865 13.0953C36.7865 18.4816 35.3102 23.4251 32.8489 27.3268C29.504 32.6293 24.3646 35.9796 18.6433 35.9796C14.591 35.9796 10.8367 34.3014 7.80018 31.4405C3.38294 27.2789 0.5 20.6235 0.5 13.0953C0.5 12.9563 0.500991 12.8301 0.502895 12.7158C0.552485 12.7738 0.605157 12.8308 0.660688 12.8844C0.824021 13.042 1.06203 13.2193 1.37088 13.2593C1.70822 13.3031 2.01641 13.1707 2.27323 12.9303C2.51772 12.7015 2.73802 12.3573 2.94818 11.9016C6.11346 5.03823 11.9881 0.5 18.6433 0.5C25.2984 0.5 31.1731 5.03823 34.3384 11.9016C34.5485 12.3573 34.7688 12.7015 35.0133 12.9303C35.2701 13.1707 35.5783 13.3031 35.9157 13.2593C36.2245 13.2193 36.4625 13.042 36.6259 12.8844C36.6814 12.8308 36.7341 12.7738 36.7836 12.7158C36.7855 12.8301 36.7865 12.9563 36.7865 13.0953Z" stroke="white"/>
<path d="M55.069 33.5628C54.8268 39.3271 49.8658 43.8083 43.9883 43.5719C39.7911 43.403 36.2616 40.8739 34.6748 37.3425C34.0396 35.9287 12.5886 21.8362 33.785 32.7065C33.8406 31.3819 34.1455 30.1251 34.6533 28.9777C36.3556 25.1318 40.3388 22.5153 44.8657 22.6974C50.7431 22.9339 55.3113 27.7984 55.069 33.5628Z" fill="url(#paint0_linear_2_47)"/>
<path d="M39.0582 35.3101L38.9182 35.2121L38.7922 35.1981L38.6662 35.1421L38.4842 35.1981C38.4095 35.0395 38.2882 34.9695 38.1202 34.9881C37.8308 34.8388 37.5555 34.6475 37.2942 34.4141C37.0328 34.1715 36.8182 33.9008 36.6502 33.6021C36.4822 33.2941 36.3982 32.9675 36.3982 32.6221C36.3982 32.5475 36.4122 32.4308 36.4402 32.2721C36.4682 32.1041 36.5148 31.9501 36.5802 31.8101C36.6455 31.6701 36.7248 31.6001 36.8182 31.6001C36.8928 31.5161 36.9955 31.3901 37.1262 31.2221C37.2662 31.0448 37.4108 30.8861 37.5602 30.7461C37.7095 30.6061 37.8402 30.5361 37.9522 30.5361C38.0455 30.5361 38.0875 30.5035 38.0782 30.4381C38.0782 30.3635 38.0922 30.2935 38.1202 30.2281C38.1482 30.1628 38.2462 30.1301 38.4142 30.1301C38.4888 30.1301 38.5495 30.1021 38.5962 30.0461C38.6522 29.9901 38.6848 29.9295 38.6942 29.8641L38.8062 29.7941L38.8622 29.8361C38.9555 29.8361 39.0348 29.8081 39.1002 29.7521C39.1748 29.6868 39.2308 29.6168 39.2682 29.5421L39.4082 29.5981C39.6415 29.5328 39.8515 29.4255 40.0382 29.2761C40.2342 29.1268 40.4488 29.0335 40.6822 28.9961L40.7942 28.8981C40.9622 28.8515 41.1302 28.8095 41.2982 28.7721C41.4662 28.7348 41.6388 28.7255 41.8162 28.7441C41.9188 28.7068 42.0168 28.6695 42.1102 28.6321C42.2128 28.5948 42.3202 28.5761 42.4322 28.5761C42.6375 28.5761 42.8335 28.6135 43.0202 28.6881C43.2162 28.7628 43.4168 28.8001 43.6222 28.8001C43.7062 28.8001 43.7575 28.7628 43.7762 28.6881C43.7948 28.6135 43.8042 28.5481 43.8042 28.4921C43.8042 28.4175 43.7995 28.3475 43.7902 28.2821C43.7902 28.2075 43.7668 28.1375 43.7202 28.0721L43.7902 28.0301C43.8462 28.0301 43.9535 28.0535 44.1122 28.1001C44.2708 28.1375 44.4435 28.1841 44.6302 28.2401C44.8168 28.2961 44.9802 28.3568 45.1202 28.4221C45.2602 28.4781 45.3395 28.5295 45.3582 28.5761L45.3022 28.8281L44.9802 28.9541L44.8542 28.8981C44.7702 28.9168 44.7235 28.9728 44.7142 29.0661C44.7142 29.1501 44.7095 29.2295 44.7002 29.3041C44.7002 29.3788 44.6628 29.4161 44.5882 29.4161C44.5788 29.4161 44.5602 29.4161 44.5322 29.4161C44.5135 29.4068 44.4902 29.3975 44.4622 29.3881L44.4482 29.4161L44.5742 29.6401L44.5462 29.6961L44.5742 29.7661L44.5462 29.8081L44.4202 29.7521L44.3642 29.7801L44.3782 29.8501C44.3408 29.9248 44.3128 30.0368 44.2942 30.1861C44.2848 30.3261 44.2148 30.3961 44.0842 30.3961C43.9535 30.5175 43.8135 30.6668 43.6642 30.8441C43.5242 31.0215 43.3515 31.1195 43.1462 31.1381V31.1241L43.2022 30.7741L43.1462 30.6761C43.2208 30.4895 43.2815 30.3121 43.3282 30.1441C43.3842 29.9668 43.4215 29.7801 43.4402 29.5841L43.5802 29.4301C43.5802 29.4021 43.5895 29.3648 43.6082 29.3181C43.6268 29.2621 43.6362 29.2248 43.6362 29.2061C43.6362 29.1595 43.6315 29.1175 43.6222 29.0801C43.6128 29.0335 43.6035 28.9915 43.5942 28.9541C43.5382 28.8888 43.4635 28.8468 43.3702 28.8281C43.2768 28.8095 43.1835 28.8001 43.0902 28.8001C42.6888 28.8001 42.2362 28.8935 41.7322 29.0801C41.2375 29.2575 40.7382 29.5048 40.2342 29.8221C39.7395 30.1395 39.2822 30.4988 38.8622 30.9001C38.4422 31.3015 38.1062 31.7261 37.8542 32.1741C37.6022 32.6221 37.4762 33.0655 37.4762 33.5041C37.4762 33.8961 37.6068 34.1621 37.8682 34.3021C38.1295 34.4421 38.4328 34.5121 38.7782 34.5121C39.1515 34.5121 39.5202 34.4701 39.8842 34.3861C40.2482 34.2928 40.6028 34.1808 40.9482 34.0501C41.0415 34.0501 41.1302 34.0408 41.2142 34.0221C41.2982 33.9941 41.3728 33.9615 41.4382 33.9241V33.8961L41.7042 33.8401L41.7742 33.8821L41.8162 33.8401V33.7841L42.0122 33.7421L42.1942 33.6021L42.2922 33.7841L42.2082 33.7421L42.1382 33.8821L42.1522 33.9101C41.9188 34.1341 41.6248 34.3488 41.2702 34.5541C40.9248 34.7595 40.5608 34.9228 40.1782 35.0441C39.8048 35.1655 39.4502 35.2215 39.1142 35.2121L39.1282 35.2541L39.0582 35.3101ZM42.9502 31.4461L42.9922 31.2221L43.0762 31.2921L42.9502 31.4461ZM42.9782 33.3361L42.9222 33.2801V33.2521C42.9968 33.2055 43.0808 33.1775 43.1742 33.1681C43.1182 33.2335 43.0528 33.2895 42.9782 33.3361ZM42.3902 33.7561L42.3202 33.7001C42.3202 33.6441 42.3342 33.5975 42.3622 33.5601C42.3995 33.5228 42.4462 33.5135 42.5022 33.5321L42.4462 33.5041C42.5675 33.4855 42.6608 33.4435 42.7262 33.3781H42.8662L42.6142 33.6581V33.6721L42.5582 33.6581L42.4882 33.7421L42.3902 33.7561ZM43.5365 35.1421C43.4152 35.1421 43.3359 35.0815 43.2985 34.9601C43.2705 34.8481 43.2565 34.7455 43.2565 34.6521C43.2565 34.5868 43.2705 34.4608 43.2985 34.2741C43.3359 34.0875 43.3825 33.9101 43.4385 33.7421C43.4945 33.5648 43.5552 33.4761 43.6205 33.4761C43.6299 33.3735 43.6672 33.2428 43.7325 33.0841C43.7979 32.9255 43.8819 32.8321 43.9845 32.8041V32.7901C44.0032 32.7621 44.0265 32.7341 44.0545 32.7061C44.0825 32.6781 44.1105 32.6501 44.1385 32.6221L44.1525 32.5941V32.6081L44.1665 32.4121C44.2132 32.3841 44.2505 32.3375 44.2785 32.2721C44.3065 32.1975 44.3439 32.1415 44.3905 32.1041L44.4325 32.1461C44.4979 32.0715 44.5679 31.9968 44.6425 31.9221C44.7265 31.8381 44.7685 31.7401 44.7685 31.6281C44.8152 31.5535 44.8665 31.4881 44.9225 31.4321C44.9879 31.3668 45.0485 31.3015 45.1045 31.2361H45.1465C45.1932 31.1895 45.2445 31.1661 45.3005 31.1661L45.3565 31.0961V30.9421L45.4125 30.9001C45.4592 30.8348 45.5199 30.7415 45.5945 30.6201C45.6692 30.4988 45.7065 30.4055 45.7065 30.3401C45.7065 30.3121 45.6832 30.2981 45.6365 30.2981C45.5992 30.2981 45.5572 30.3075 45.5105 30.3261C45.4639 30.3355 45.4312 30.3401 45.4125 30.3401V30.2701L46.1265 29.6681V29.6541C46.2479 29.5701 46.3645 29.4815 46.4765 29.3881C46.5885 29.2855 46.7052 29.1968 46.8265 29.1221C46.9292 29.1408 47.0412 29.1735 47.1625 29.2201C47.2839 29.2575 47.3679 29.3275 47.4145 29.4301V29.6121C47.3492 29.6775 47.2372 29.7941 47.0785 29.9621C46.9199 30.1301 46.7379 30.3215 46.5325 30.5361C46.3272 30.7415 46.1219 30.9468 45.9165 31.1521C45.7112 31.3481 45.5292 31.5115 45.3705 31.6421C45.2212 31.7728 45.1185 31.8428 45.0625 31.8521L44.8945 32.0061L44.9645 32.1321L44.8945 32.2721C44.8199 32.2908 44.7405 32.3515 44.6565 32.4541C44.5819 32.5475 44.5445 32.6361 44.5445 32.7201C44.4605 32.7575 44.4045 32.7995 44.3765 32.8461C44.3579 32.8928 44.3299 32.9395 44.2925 32.9861C44.2645 33.0328 44.1852 33.0795 44.0545 33.1261L44.0125 33.1961V33.5041L44.0685 33.5461L43.9985 33.5181L43.9425 33.6301H43.9145C43.8865 33.7235 43.8725 33.8215 43.8725 33.9241L43.9425 34.0921C43.9799 34.0455 44.0545 33.9755 44.1665 33.8821C44.2785 33.7795 44.3299 33.7048 44.3205 33.6581L44.4325 33.5461C44.4605 33.4528 44.5259 33.3361 44.6285 33.1961C44.7405 33.0468 44.8619 32.9115 44.9925 32.7901C45.1232 32.6688 45.2352 32.6081 45.3285 32.6081V32.5941L45.5385 32.6081C45.6692 32.6735 45.7485 32.7855 45.7765 32.9441C45.8045 33.1028 45.8465 33.2895 45.9025 33.5041C45.9679 33.7095 46.1079 33.9241 46.3225 34.1481L46.5465 34.0081H46.5885C46.6259 33.9615 46.6819 33.9195 46.7565 33.8821C46.8405 33.8448 46.9105 33.8121 46.9665 33.7841L46.9805 33.7981C46.9805 33.8448 46.9105 33.9241 46.7705 34.0361C46.6399 34.1481 46.4999 34.2508 46.3505 34.3441C46.2012 34.4375 46.0939 34.4935 46.0285 34.5121L45.9865 34.4841L45.8465 34.5121L45.8045 34.4421C45.5712 34.4141 45.4032 34.3535 45.3005 34.2601C45.1979 34.1575 45.1279 34.0455 45.0905 33.9241C45.0625 33.8028 45.0392 33.6908 45.0205 33.5881C45.0019 33.4855 44.9505 33.4201 44.8665 33.3921C44.8012 33.4575 44.7405 33.5228 44.6845 33.5881C44.6285 33.6535 44.5725 33.7235 44.5165 33.7981C44.4325 33.8355 44.3485 33.9241 44.2645 34.0641C44.1899 34.2041 44.1152 34.3581 44.0405 34.5261C43.9752 34.6941 43.9005 34.8388 43.8165 34.9601C43.7325 35.0815 43.6392 35.1421 43.5365 35.1421ZM45.2165 30.4661L45.2025 30.4241L45.2445 30.3261L45.3285 30.3401L45.3565 30.4381L45.2165 30.4661ZM49.5292 35.7301L49.2492 35.4081C49.2025 35.2215 49.1512 35.0301 49.0952 34.8341C49.0485 34.6475 49.0159 34.4561 48.9972 34.2601L49.0672 33.9941L49.0392 33.9801C49.0765 33.8775 49.1139 33.7748 49.1512 33.6721C49.1979 33.5601 49.2212 33.4528 49.2212 33.3501C49.1745 33.3968 49.1232 33.4435 49.0672 33.4901C49.0205 33.5368 48.9832 33.5928 48.9552 33.6581C48.9179 33.6955 48.8852 33.7421 48.8572 33.7981C48.8292 33.8541 48.7919 33.9008 48.7452 33.9381L48.7312 34.0641C48.6005 34.0921 48.4699 34.1575 48.3392 34.2601C48.2179 34.3535 48.0965 34.4468 47.9752 34.5401C47.8539 34.6241 47.7232 34.6661 47.5832 34.6661C47.5179 34.6661 47.4339 34.6615 47.3312 34.6521C47.2379 34.6335 47.1679 34.6055 47.1212 34.5681C46.9999 34.5401 46.9112 34.5075 46.8552 34.4701C46.8085 34.4235 46.7712 34.3395 46.7432 34.2181L46.7992 34.0361L46.7572 33.9241C46.8039 33.7748 46.8365 33.6675 46.8552 33.6021C46.8832 33.5368 46.9205 33.4808 46.9672 33.4341C47.0232 33.3875 47.1119 33.3175 47.2332 33.2241C47.2425 33.1775 47.2659 33.1448 47.3032 33.1261C47.3499 33.0981 47.3919 33.0795 47.4292 33.0701L47.4432 33.0001L47.5832 32.8321L47.6252 32.8601L47.7092 32.7341C47.7745 32.6875 47.8399 32.6595 47.9052 32.6501C47.9799 32.6315 48.0499 32.6035 48.1152 32.5661C48.1339 32.4635 48.1945 32.4028 48.2972 32.3841C48.4092 32.3561 48.4745 32.3048 48.4932 32.2301H48.5492L48.7872 32.0761L48.8712 32.1181L49.0672 31.9921C49.1232 31.9921 49.1745 31.9875 49.2212 31.9781C49.2772 31.9688 49.3285 31.9641 49.3752 31.9641L49.4312 31.9921C49.2445 32.0575 49.0299 32.1648 48.7872 32.3141C48.5445 32.4541 48.3065 32.6221 48.0732 32.8181C47.8492 33.0048 47.6625 33.2101 47.5132 33.4341C47.3639 33.6581 47.2892 33.8821 47.2892 34.1061C47.2892 34.2835 47.3825 34.3721 47.5692 34.3721C47.7372 34.3721 47.9099 34.3208 48.0872 34.2181C48.2739 34.1155 48.4419 33.9895 48.5912 33.8401C48.7405 33.6908 48.8479 33.5461 48.9132 33.4061L49.1512 33.2101C49.1699 33.1635 49.1932 33.1308 49.2212 33.1121C49.2492 33.0935 49.2679 33.0608 49.2772 33.0141C49.3425 33.0048 49.3892 32.9488 49.4172 32.8461C49.4452 32.7435 49.4779 32.6315 49.5152 32.5101C49.5525 32.3795 49.6039 32.2675 49.6692 32.1741C49.7345 32.0808 49.8325 32.0341 49.9632 32.0341C50.0659 32.0341 50.1825 32.0808 50.3132 32.1741C50.4439 32.2581 50.5092 32.3608 50.5092 32.4821C50.5092 32.5475 50.4532 32.6735 50.3412 32.8601C50.2292 33.0468 50.0985 33.2661 49.9492 33.5181C49.8092 33.7701 49.6832 34.0315 49.5712 34.3021C49.4592 34.5728 49.4032 34.8295 49.4032 35.0721C49.4032 35.1748 49.4219 35.2775 49.4592 35.3801C49.5059 35.4828 49.5339 35.5855 49.5432 35.6881L49.5292 35.7301ZM50.8917 35.3941C50.7423 35.3941 50.621 35.3288 50.5277 35.1981C50.4343 35.0768 50.3877 34.9415 50.3877 34.7921C50.3877 34.6801 50.4203 34.5121 50.4857 34.2881C50.5603 34.0548 50.649 33.8121 50.7517 33.5601C50.8543 33.2988 50.9617 33.0655 51.0737 32.8601C51.1857 32.6548 51.2883 32.5195 51.3817 32.4541C51.5123 32.2488 51.629 32.0575 51.7317 31.8801C51.5823 31.9081 51.433 31.9408 51.2837 31.9781C51.1343 32.0061 50.9943 32.0481 50.8637 32.1041C50.7983 32.1881 50.7237 32.2301 50.6397 32.2301C50.6117 32.2115 50.579 32.1928 50.5417 32.1741C50.5043 32.1555 50.4717 32.1321 50.4437 32.1041L50.4577 32.0761H50.4437V32.0481C50.4437 32.0015 50.4343 31.9595 50.4157 31.9221C50.4063 31.8755 50.397 31.8335 50.3877 31.7961C50.3783 31.7868 50.3737 31.7635 50.3737 31.7261C50.3737 31.6048 50.4297 31.5255 50.5417 31.4881C50.663 31.4508 50.7843 31.4321 50.9057 31.4321C51.083 31.4321 51.2043 31.4461 51.2697 31.4741L51.4097 31.4461H51.7597C51.825 31.4461 51.8857 31.4461 51.9417 31.4461C51.9977 31.4461 52.0537 31.4415 52.1097 31.4321L52.1657 31.3481L52.1517 31.2921C52.1797 31.2268 52.2403 31.1195 52.3337 30.9701C52.427 30.8208 52.525 30.6621 52.6277 30.4941C52.7303 30.3261 52.819 30.1815 52.8937 30.0601C52.9777 29.9295 53.0197 29.8641 53.0197 29.8641C53.0197 29.8081 53.0663 29.7755 53.1597 29.7661C53.253 29.7568 53.3137 29.7521 53.3417 29.7521C53.4443 29.7521 53.5843 29.7848 53.7617 29.8501C53.939 29.9061 54.0277 30.0041 54.0277 30.1441C54.0277 30.2281 53.995 30.2981 53.9297 30.3541C53.8643 30.4008 53.7943 30.4335 53.7197 30.4521V30.4661C53.7197 30.5221 53.6777 30.5875 53.5937 30.6621C53.519 30.7368 53.4303 30.8021 53.3277 30.8581C53.225 30.9141 53.1457 30.9515 53.0897 30.9701C53.0617 30.9795 53.0243 31.0168 52.9777 31.0821C52.9403 31.1381 52.9123 31.1801 52.8937 31.2081V31.2641C52.8563 31.2921 52.8143 31.3248 52.7677 31.3621C52.7303 31.3901 52.6977 31.4275 52.6697 31.4741C52.7163 31.4835 52.763 31.4881 52.8097 31.4881C52.8563 31.4881 52.903 31.4881 52.9497 31.4881C53.0243 31.4881 53.0943 31.4881 53.1597 31.4881C53.2343 31.4881 53.3043 31.4928 53.3697 31.5021L53.8037 31.5581C53.6917 31.6515 53.5657 31.7075 53.4257 31.7261C53.2857 31.7355 53.141 31.7401 52.9917 31.7401C52.8517 31.7308 52.7163 31.7541 52.5857 31.8101C52.5203 31.8288 52.4317 31.8848 52.3197 31.9781C52.217 32.0715 52.1237 32.1741 52.0397 32.2861C51.9557 32.3888 51.9137 32.4775 51.9137 32.5521L51.5917 32.9861C51.4983 33.0328 51.4517 33.1028 51.4517 33.1961C51.4517 33.2895 51.4003 33.3361 51.2977 33.3361L51.1017 33.7841C51.0923 33.8401 51.0783 33.9288 51.0597 34.0501C51.0503 34.1621 51.013 34.2275 50.9477 34.2461C50.9477 34.3675 50.943 34.4888 50.9337 34.6101C50.9243 34.7221 50.9197 34.8341 50.9197 34.9461L50.9477 35.0021H51.0597C51.2463 34.8155 51.4377 34.6381 51.6337 34.4701C51.839 34.2928 52.0303 34.1061 52.2077 33.9101L52.2777 33.8821H52.3057L52.3897 33.7701L52.4457 33.7421L52.4317 33.7281L52.5157 33.6581C52.5903 33.5181 52.7117 33.4015 52.8797 33.3081L52.8937 33.3361C52.8937 33.3828 52.833 33.4855 52.7117 33.6441C52.5903 33.7935 52.4363 33.9708 52.2497 34.1761C52.0723 34.3721 51.8857 34.5635 51.6897 34.7501C51.503 34.9368 51.335 35.0908 51.1857 35.2121C51.0363 35.3335 50.9383 35.3941 50.8917 35.3941Z" fill="white"/>
<path d="M20.8804 29.1837L23.4637 25.9005H18.2971L20.8804 29.1837Z" fill="url(#paint1_linear_2_47)"/>
<defs>
<linearGradient id="paint0_linear_2_47" x1="28.4212" y1="41.5078" x2="63.024" y2="31.3672" gradientUnits="userSpaceOnUse">
<stop stop-color="white"/>
<stop offset="0.114583" stop-color="#F7CBFD"/>
</linearGradient>
<linearGradient id="paint1_linear_2_47" x1="20.8804" y1="29.1837" x2="20.8804" y2="24.8061" gradientUnits="userSpaceOnUse">
<stop offset="0.0677083" stop-color="white"/>
<stop offset="0.567708" stop-color="#F7CBFD"/>
</linearGradient>
</defs>
</svg>
