<svg width="15" height="15" viewBox="0 0 15 15" fill="none" xmlns="http://www.w3.org/2000/svg">
<path fill-rule="evenodd" clip-rule="evenodd" d="M6.79688 2.34375C4.33748 2.34375 2.34375 4.33748 2.34375 6.79688C2.34375 9.25627 4.33748 11.25 6.79688 11.25C9.25627 11.25 11.25 9.25627 11.25 6.79688C11.25 4.33748 9.25627 2.34375 6.79688 2.34375ZM1.40625 6.79688C1.40625 3.81972 3.81972 1.40625 6.79688 1.40625C9.77403 1.40625 12.1875 3.81972 12.1875 6.79688C12.1875 9.77403 9.77403 12.1875 6.79688 12.1875C3.81972 12.1875 1.40625 9.77403 1.40625 6.79688Z" fill="white" fill-opacity="0.68" style="mix-blend-mode:luminosity"/>
<path fill-rule="evenodd" clip-rule="evenodd" d="M9.94589 9.94589C10.1289 9.76283 10.4257 9.76283 10.6088 9.94589L13.4565 12.7935C13.6395 12.9766 13.6395 13.2734 13.4565 13.4565C13.2734 13.6395 12.9766 13.6395 12.7935 13.4565L9.94589 10.6088C9.76283 10.4257 9.76283 10.1289 9.94589 9.94589Z" fill="white" fill-opacity="0.68" style="mix-blend-mode:luminosity"/>
</svg>
