<svg width="20" height="20" viewBox="0 0 20 20" fill="none" xmlns="http://www.w3.org/2000/svg">
<path fill-rule="evenodd" clip-rule="evenodd" d="M4.32148 6.93102C5.00293 8.44536 6.28268 10.2586 8.01279 11.9887C9.7429 13.7188 11.5562 14.9986 13.0705 15.68C13.8298 16.0217 14.4827 16.1988 14.9939 16.2266C15.5056 16.2545 15.8019 16.132 15.9677 15.9662C16.1336 15.8004 16.256 15.504 16.2282 14.9924C16.2003 14.4812 16.0233 13.8283 15.6816 13.069C15.0001 11.5546 13.7204 9.74137 11.9903 8.01126C10.2602 6.28115 8.44689 5.0014 6.93255 4.31995C6.17323 3.97825 5.52035 3.80119 5.00913 3.77337C4.4975 3.74553 4.20115 3.86794 4.03531 4.03378C3.86947 4.19962 3.74706 4.49597 3.7749 5.0076C3.80272 5.51883 3.97978 6.1717 4.32148 6.93102ZM2.52675 5.07552C2.48765 4.357 2.64606 3.65528 3.15143 3.1499C3.6568 2.64453 4.35853 2.48612 5.07704 2.52522C5.79596 2.56434 6.60531 2.80196 7.4455 3.18005C9.13019 3.93816 11.0651 5.31836 12.8741 7.12738C14.6832 8.93639 16.0634 10.8713 16.8215 12.556C17.1996 13.3962 17.4372 14.2056 17.4763 14.9245C17.5154 15.643 17.357 16.3447 16.8516 16.8501C16.3462 17.3555 15.6445 17.5139 14.926 17.4748C14.2071 17.4357 13.3977 17.198 12.5575 16.8199C10.8729 16.0618 8.93792 14.6816 7.12891 12.8726C5.31989 11.0636 3.93969 9.12866 3.18158 7.44398C2.80349 6.60378 2.56587 5.79443 2.52675 5.07552Z" fill="#FCA6EF" fill-opacity="0.8" style="mix-blend-mode:luminosity"/>
<path fill-rule="evenodd" clip-rule="evenodd" d="M3.7749 14.9924C3.74706 15.504 3.86947 15.8004 4.03531 15.9662C4.20115 16.1321 4.4975 16.2545 5.00913 16.2266C5.52035 16.1988 6.17323 16.0217 6.93255 15.6801C8.44689 14.9986 10.2602 13.7188 11.9903 11.9887C13.7204 10.2586 15.0001 8.44537 15.6816 6.93103C16.0233 6.1717 16.2003 5.51883 16.2282 5.00761C16.256 4.49598 16.1336 4.19963 15.9677 4.03379C15.8019 3.86795 15.5056 3.74554 14.9939 3.77338C14.4827 3.8012 13.8298 3.97826 13.0705 4.31995C11.5562 5.00141 9.7429 6.28116 8.01279 8.01127C6.28268 9.74137 5.00293 11.5546 4.32148 13.069C3.97978 13.8283 3.80272 14.4812 3.7749 14.9924ZM3.18158 12.556C3.93969 10.8713 5.31989 8.9364 7.12891 7.12738C8.93792 5.31836 10.8729 3.93816 12.5575 3.18005C13.3977 2.80197 14.2071 2.56434 14.926 2.52523C15.6445 2.48613 16.3462 2.64453 16.8516 3.14991C17.357 3.65528 17.5154 4.357 17.4763 5.07552C17.4372 5.79444 17.1996 6.60379 16.8215 7.44398C16.0634 9.12867 14.6832 11.0636 12.8741 12.8726C11.0651 14.6816 9.13019 16.0618 7.4455 16.82C6.60531 17.198 5.79596 17.4357 5.07704 17.4748C4.35853 17.5139 3.6568 17.3555 3.15143 16.8501C2.64606 16.3447 2.48765 15.643 2.52675 14.9245C2.56587 14.2056 2.80349 13.3962 3.18158 12.556Z" fill="#FCA6EF" fill-opacity="0.8" style="mix-blend-mode:luminosity"/>
<path d="M10 10.9375C10.5178 10.9375 10.9375 10.5178 10.9375 10C10.9375 9.48223 10.5178 9.0625 10 9.0625C9.48223 9.0625 9.0625 9.48223 9.0625 10C9.0625 10.5178 9.48223 10.9375 10 10.9375Z" fill="#FCA6EF" fill-opacity="0.8" style="mix-blend-mode:luminosity"/>
</svg>
