<svg width="20" height="20" viewBox="0 0 20 20" fill="none" xmlns="http://www.w3.org/2000/svg">
<path fill-rule="evenodd" clip-rule="evenodd" d="M9.70588 1.94853C9.88971 1.85049 10.1103 1.85049 10.2941 1.94853L19.6691 6.94853C19.8728 7.05715 20 7.26918 20 7.5C20 7.73082 19.8728 7.94285 19.6691 8.05147L10.2941 13.0515C10.1103 13.1495 9.88971 13.1495 9.70588 13.0515L0.330882 8.05147C0.127218 7.94285 0 7.73082 0 7.5C0 7.26918 0.127218 7.05715 0.330882 6.94853L9.70588 1.94853ZM1.95312 7.5L10 11.7917L18.0469 7.5L10 3.20833L1.95312 7.5Z" fill="#FCA6EF" fill-opacity="0.8" style="mix-blend-mode:luminosity"/>
<path fill-rule="evenodd" clip-rule="evenodd" d="M9.44853 7.20588C9.61097 6.90131 9.98955 6.78609 10.2941 6.94853L14.9816 9.44853C15.1853 9.55715 15.3125 9.76918 15.3125 10V18.75C15.3125 19.0952 15.0327 19.375 14.6875 19.375C14.3423 19.375 14.0625 19.0952 14.0625 18.75V10.375L9.70588 8.05147C9.40131 7.88904 9.28609 7.51045 9.44853 7.20588Z" fill="#FCA6EF" fill-opacity="0.8" style="mix-blend-mode:luminosity"/>
<path fill-rule="evenodd" clip-rule="evenodd" d="M2.81251 8.03906C3.15768 8.03906 3.43751 8.31888 3.43751 8.66406V12.9218L3.43888 12.9236L3.43884 12.9237C3.90235 13.5463 5.9575 15.9375 10 15.9375C14.0425 15.9375 16.0977 13.5463 16.5612 12.9237L16.5625 12.9219V8.66406C16.5625 8.31888 16.8423 8.03906 17.1875 8.03906C17.5327 8.03906 17.8125 8.31888 17.8125 8.66406V12.9297L17.8125 12.9323C17.8114 13.1998 17.7234 13.4596 17.5619 13.6727C16.9752 14.4598 14.593 17.1875 10 17.1875C5.40698 17.1875 3.02482 14.4598 2.43812 13.6727C2.27661 13.4596 2.18864 13.1998 2.18751 12.9323L2.1875 12.9297H2.18751V8.66406C2.18751 8.31888 2.46733 8.03906 2.81251 8.03906Z" fill="#FCA6EF" fill-opacity="0.8" style="mix-blend-mode:luminosity"/>
</svg>
