<svg width="20" height="20" viewBox="0 0 20 20" fill="none" xmlns="http://www.w3.org/2000/svg">
<path fill-rule="evenodd" clip-rule="evenodd" d="M11.25 8.4375C11.25 8.09232 11.5298 7.8125 11.875 7.8125H14.375C14.7202 7.8125 15 8.09232 15 8.4375C15 8.78268 14.7202 9.0625 14.375 9.0625H11.875C11.5298 9.0625 11.25 8.78268 11.25 8.4375Z" fill="#FCA6EF" fill-opacity="0.8" style="mix-blend-mode:luminosity"/>
<path fill-rule="evenodd" clip-rule="evenodd" d="M5 8.4375C5 8.09232 5.27982 7.8125 5.625 7.8125H8.125C8.47018 7.8125 8.75 8.09232 8.75 8.4375C8.75 8.78268 8.47018 9.0625 8.125 9.0625H5.625C5.27982 9.0625 5 8.78268 5 8.4375Z" fill="#FCA6EF" fill-opacity="0.8" style="mix-blend-mode:luminosity"/>
<path fill-rule="evenodd" clip-rule="evenodd" d="M6.875 6.5625C7.22018 6.5625 7.5 6.84232 7.5 7.1875V9.6875C7.5 10.0327 7.22018 10.3125 6.875 10.3125C6.52982 10.3125 6.25 10.0327 6.25 9.6875V7.1875C6.25 6.84232 6.52982 6.5625 6.875 6.5625Z" fill="#FCA6EF" fill-opacity="0.8" style="mix-blend-mode:luminosity"/>
<path fill-rule="evenodd" clip-rule="evenodd" d="M13.4375 3.72656C14.6807 3.72656 15.873 4.22042 16.7521 5.0995C17.6312 5.97858 18.125 7.17086 18.125 8.41406C18.125 9.65726 17.6312 10.8495 16.7521 11.7286C15.8734 12.6073 14.6817 13.1012 13.4391 13.1016C13.4385 13.1016 13.438 13.1016 13.4375 13.1016L8.63814 13.1237L5.4481 16.6534L4.98441 16.2344L5.42726 16.6754C5.00434 17.1001 4.45684 17.3785 3.86457 17.4702C3.2723 17.5618 2.66623 17.4619 2.13474 17.1849C1.60325 16.908 1.17413 16.4685 0.909948 15.9305C0.645762 15.3926 0.560327 14.7843 0.666099 14.1944L0.667843 14.1851L1.94811 7.61979C2.14143 6.53735 2.70853 5.55703 3.55063 4.8498C4.394 4.1415 5.45952 3.75221 6.56086 3.75M13.4375 3.72656V4.35156V3.72656ZM13.4375 4.97656L6.56373 5C5.75546 5.00154 4.97347 5.2872 4.35453 5.80701C3.73559 6.32682 3.3191 7.0477 3.17793 7.84354L2.56254 7.73438L3.17598 7.854L1.89572 14.4193C1.83813 14.7457 1.88582 15.082 2.03195 15.3795C2.17872 15.6784 2.41712 15.9225 2.71239 16.0764C3.00766 16.2303 3.34436 16.2858 3.6734 16.2349C3.99787 16.1847 4.29815 16.0335 4.53173 15.8031L7.89572 12.0809C8.01355 11.9506 8.18081 11.8758 8.35653 11.875L13.4347 11.8516L13.4375 11.8516C14.3492 11.8516 15.2236 11.4894 15.8682 10.8447C16.5129 10.2001 16.875 9.32574 16.875 8.41406C16.875 7.50238 16.5129 6.62804 15.8682 5.98338C15.2238 5.33897 14.3499 4.97683 13.4386 4.97656C13.4382 4.97656 13.4379 4.97656 13.4375 4.97656Z" fill="#FCA6EF" fill-opacity="0.8" style="mix-blend-mode:luminosity"/>
<path fill-rule="evenodd" clip-rule="evenodd" d="M17.3183 7.09742C17.6571 7.03157 17.9852 7.25288 18.051 7.59172L19.3323 14.1855L19.3339 14.1944C19.4397 14.7843 19.3543 15.3926 19.0901 15.9305C18.8259 16.4685 18.3968 16.908 17.8653 17.1849C17.3338 17.4619 16.7277 17.5618 16.1355 17.4702C15.5432 17.3785 14.9957 17.1001 14.5728 16.6754L15.0156 16.2344L14.5511 16.6525L11.1761 12.9025C10.9452 12.6459 10.966 12.2507 11.2225 12.0198C11.4791 11.7889 11.8743 11.8097 12.1052 12.0663L15.4687 15.8035C15.7022 16.0337 16.0024 16.1847 16.3266 16.2349C16.6557 16.2858 16.9924 16.2303 17.2877 16.0764C17.5829 15.9225 17.8213 15.6784 17.9681 15.3795C18.1143 15.0819 18.1619 14.7455 18.1043 14.4191L16.824 7.83016C16.7581 7.49132 16.9794 7.16326 17.3183 7.09742Z" fill="#FCA6EF" fill-opacity="0.8" style="mix-blend-mode:luminosity"/>
</svg>
