<svg width="20" height="20" viewBox="0 0 20 20" fill="none" xmlns="http://www.w3.org/2000/svg">
<circle cx="10" cy="10" r="10" fill="white"/>
<path d="M14.1257 6.28932C14.8982 6.24584 15.4254 7.05857 15.0706 7.74622L12.4386 12.8481C12.2762 13.1628 11.9596 13.3682 11.6061 13.3881L5.87431 13.7107C5.10176 13.7542 4.57465 12.9414 4.9294 12.2538L7.56143 7.15187C7.72377 6.8372 8.04042 6.63183 8.39395 6.61193L14.1257 6.28932Z" fill="black" fill-opacity="0.71"/>
<path d="M10.5442 10.839C10.0808 11.1395 9.46154 11.0075 9.16101 10.5442C8.86049 10.0808 8.9925 9.46154 9.45586 9.16101C9.91922 8.86049 10.5385 8.9925 10.839 9.45586C11.1395 9.91922 11.0075 10.5385 10.5442 10.839Z" fill="white"/>
</svg>
