<svg width="20" height="20" viewBox="0 0 20 20" fill="none" xmlns="http://www.w3.org/2000/svg">
<path fill-rule="evenodd" clip-rule="evenodd" d="M6.875 11.875C5.49429 11.875 4.375 12.9943 4.375 14.375C4.375 15.7557 5.49429 16.875 6.875 16.875C8.25571 16.875 9.375 15.7557 9.375 14.375C9.375 12.9943 8.25571 11.875 6.875 11.875ZM3.125 14.375C3.125 12.3039 4.80393 10.625 6.875 10.625C8.94607 10.625 10.625 12.3039 10.625 14.375C10.625 16.4461 8.94607 18.125 6.875 18.125C4.80393 18.125 3.125 16.4461 3.125 14.375Z" fill="#F7CBFD" fill-opacity="0.8" style="mix-blend-mode:luminosity"/>
<path fill-rule="evenodd" clip-rule="evenodd" d="M9.62696 2.62357C9.78547 2.50563 9.9904 2.46959 10.1796 2.52636L16.4296 4.40136C16.694 4.48067 16.875 4.72399 16.875 5V8.75C16.875 8.94757 16.7816 9.1335 16.6231 9.25143C16.4646 9.36937 16.2597 9.40541 16.0704 9.34864L10.625 7.71502V14.375C10.625 14.7202 10.3452 15 10 15C9.65486 15 9.37504 14.7202 9.37504 14.375V6.88953C9.37482 6.88003 9.37482 6.87051 9.37504 6.86096V3.125C9.37504 2.92743 9.46845 2.7415 9.62696 2.62357ZM10.625 6.40998L15.625 7.90998V5.46502L10.625 3.96502V6.40998Z" fill="#F7CBFD" fill-opacity="0.8" style="mix-blend-mode:luminosity"/>
</svg>
