<svg width="20" height="20" viewBox="0 0 20 20" fill="none" xmlns="http://www.w3.org/2000/svg">
<path fill-rule="evenodd" clip-rule="evenodd" d="M1.875 6.25C1.875 5.55964 2.43464 5 3.125 5H16.875C17.5654 5 18.125 5.55964 18.125 6.25V15.625C18.125 16.3154 17.5654 16.875 16.875 16.875H3.125C2.43464 16.875 1.875 16.3154 1.875 15.625V6.25ZM16.875 6.25H3.125V15.625H16.875V6.25Z" fill="#FCA6EF" fill-opacity="0.8" style="mix-blend-mode:luminosity"/>
<path fill-rule="evenodd" clip-rule="evenodd" d="M5.80806 1.43306C6.05214 1.18898 6.44786 1.18898 6.69194 1.43306L10 4.74112L13.3081 1.43306C13.5521 1.18898 13.9479 1.18898 14.1919 1.43306C14.436 1.67714 14.436 2.07286 14.1919 2.31694L10.4419 6.06694C10.1979 6.31102 9.80214 6.31102 9.55806 6.06694L5.80806 2.31694C5.56398 2.07286 5.56398 1.67714 5.80806 1.43306Z" fill="#FCA6EF" fill-opacity="0.8" style="mix-blend-mode:luminosity"/>
<path d="M14.6875 10C15.2053 10 15.625 9.58027 15.625 9.0625C15.625 8.54473 15.2053 8.125 14.6875 8.125C14.1697 8.125 13.75 8.54473 13.75 9.0625C13.75 9.58027 14.1697 10 14.6875 10Z" fill="#FCA6EF" fill-opacity="0.8" style="mix-blend-mode:luminosity"/>
<path d="M14.6875 13.75C15.2053 13.75 15.625 13.3303 15.625 12.8125C15.625 12.2947 15.2053 11.875 14.6875 11.875C14.1697 11.875 13.75 12.2947 13.75 12.8125C13.75 13.3303 14.1697 13.75 14.6875 13.75Z" fill="#FCA6EF" fill-opacity="0.8" style="mix-blend-mode:luminosity"/>
<path fill-rule="evenodd" clip-rule="evenodd" d="M11.875 5C12.2202 5 12.5 5.27982 12.5 5.625V16.25C12.5 16.5952 12.2202 16.875 11.875 16.875C11.5298 16.875 11.25 16.5952 11.25 16.25V5.625C11.25 5.27982 11.5298 5 11.875 5Z" fill="#FCA6EF" fill-opacity="0.8" style="mix-blend-mode:luminosity"/>
</svg>
