<svg width="3313" height="1354" viewBox="0 0 3313 1354" fill="none" xmlns="http://www.w3.org/2000/svg">
<g clip-path="url(#clip0_834_1220)">
<path d="M715.039 604.085C715.039 655.187 673.61 696.606 622.508 696.606C571.411 696.606 529.976 655.187 529.976 604.085C529.976 552.988 571.411 511.564 622.508 511.564C673.615 511.564 715.039 552.983 715.039 604.085Z" fill="#E39DE5"/>
<path d="M473.035 604.085C473.035 655.187 431.605 696.606 380.503 696.606C329.407 696.606 287.972 655.187 287.972 604.085C287.972 552.988 329.407 511.564 380.503 511.564C431.611 511.564 473.035 552.983 473.035 604.085Z" fill="#E39DE5"/>
<path d="M771.98 604.085C771.98 655.187 813.404 696.606 864.512 696.606C915.608 696.606 957.038 655.187 957.038 604.085C957.038 552.988 915.614 511.564 864.512 511.564C813.404 511.564 771.98 552.983 771.98 604.085Z" fill="#E39DE5"/>
<path d="M1052.79 419.128C1009.59 434.116 962.241 416.025 936.498 378.157C861.477 267.982 737.262 202.249 604.138 202.249C536.102 202.249 471.936 219.268 415.667 249.256C411.807 251.282 408.037 253.308 404.268 255.601C140.674 402.514 55.8152 750.321 164.86 1018.21C62.7148 910.015 0.00500488 764.275 0.00500488 604.128C0.00500488 270.952 271.042 0 604.138 0C805.118 0 992.399 99.458 1105.02 266.227C1141.34 320.033 1119.09 396.169 1052.8 419.128H1052.79Z" fill="#7758D1"/>
<path d="M1107.96 937.57C995.518 1107.04 807.234 1208.25 604.137 1208.25C555.968 1208.25 509.078 1202.44 464.113 1191.68C443.798 1186.82 422.374 1190.78 405.371 1202.89L204.114 1346.07C175.795 1366.29 137.181 1341.93 143.339 1307.62L183.889 1080.56C187.84 1057.92 180.674 1034.95 164.859 1018.21C55.8145 750.315 140.673 402.508 404.267 255.601C283.641 324.981 202.28 455.284 202.28 604.128C202.28 825.689 382.566 1005.96 604.137 1005.96C739.197 1005.96 864.515 938.61 939.35 825.785C970.239 779.268 1032.94 766.578 1079.56 797.37C1126.08 828.259 1138.76 891.064 1107.96 937.576V937.57Z" fill="#E39DE5"/>
<path d="M1296.66 1144.45C1270.84 1144.45 1250.86 1137.38 1236.72 1123.24C1222.58 1109.1 1215.51 1088.51 1215.51 1061.46V560.731C1215.51 533.681 1222.58 513.089 1236.72 498.949C1250.86 484.808 1270.84 477.738 1296.66 477.738C1323.09 477.738 1343.53 484.808 1357.98 498.949C1372.42 513.089 1379.65 533.681 1379.65 560.731V761.758H1364.89C1379.65 732.864 1400.7 710.731 1428.06 695.364C1455.42 679.997 1486.62 672.308 1521.66 672.308C1557.93 672.308 1587.75 679.224 1611.11 693.055C1634.47 706.886 1651.99 728.406 1663.67 757.604C1675.36 786.808 1681.19 823.54 1681.19 867.801V1061.45C1681.19 1088.5 1674.12 1109.1 1659.98 1123.24C1645.84 1137.38 1625.56 1144.45 1599.12 1144.45C1572.69 1144.45 1552.4 1137.38 1538.26 1123.24C1524.12 1109.1 1517.05 1088.5 1517.05 1061.45V874.258C1517.05 846.596 1512.29 826.921 1502.76 815.243C1493.23 803.561 1479.24 797.723 1460.8 797.723C1436.21 797.723 1416.54 805.561 1401.78 821.237C1387.03 836.913 1379.65 857.969 1379.65 884.405V1061.45C1379.65 1116.78 1351.99 1144.45 1296.66 1144.45V1144.45Z" fill="#7758D1"/>
<path d="M1932.02 1146.3C1896.98 1146.3 1866.08 1139.85 1839.34 1126.93C1812.6 1114.02 1791.69 1096.35 1776.64 1073.91C1761.57 1051.47 1754.04 1025.8 1754.04 996.911C1754.04 963.714 1762.65 937.587 1779.86 918.53C1797.07 899.473 1824.74 885.791 1862.85 877.495C1900.97 869.198 1951.69 865.045 2015 865.045H2065.72V942.503H2015C1991.03 942.503 1971.2 944.193 1955.53 947.579C1939.85 950.959 1928.32 956.185 1920.95 963.255C1913.57 970.325 1909.88 979.395 1909.88 990.459C1909.88 1004.6 1914.95 1016.28 1925.1 1025.5C1935.24 1034.72 1949.85 1039.33 1968.9 1039.33C1984.27 1039.33 1997.95 1035.95 2009.94 1029.19C2021.93 1022.42 2031.61 1013.05 2038.99 1001.06C2046.37 989.073 2050.05 975.087 2050.05 959.101V852.13C2050.05 829.997 2044.37 814.321 2033 805.102C2021.62 795.878 2002.1 791.271 1974.44 791.271C1959.69 791.271 1943.09 792.961 1924.64 796.342C1906.2 799.722 1885.61 805.715 1862.86 814.327C1846.26 820.474 1832.12 821.397 1820.44 817.094C1808.76 812.791 1799.69 805.411 1793.24 794.961C1786.78 784.51 1783.71 773.137 1784.01 760.841C1784.32 748.546 1788.31 736.863 1796 725.799C1803.68 714.735 1815.51 706.124 1831.5 699.982C1861.01 688.918 1888.21 681.538 1913.11 677.848C1938.01 674.159 1960.91 672.314 1981.81 672.314C2032.22 672.314 2073.87 679.539 2106.76 693.983C2139.65 708.427 2164.24 730.561 2180.53 760.377C2196.83 790.194 2204.97 828.462 2204.97 875.186V1061.46C2204.97 1088.51 2198.52 1109.11 2185.6 1123.24C2172.69 1137.38 2153.94 1144.45 2129.35 1144.45C2104.15 1144.45 2084.93 1137.38 2071.72 1123.24C2058.5 1109.1 2051.89 1088.51 2051.89 1061.46V1037.48L2057.43 1050.39C2054.35 1070.07 2047.28 1086.97 2036.22 1101.11C2025.15 1115.25 2010.7 1126.31 1992.88 1134.31C1975.05 1142.3 1954.76 1146.29 1932.02 1146.29V1146.3Z" fill="#7758D1"/>
<path d="M2536.02 1146.3C2489.92 1146.3 2451.95 1139.23 2422.14 1125.09C2392.32 1110.95 2370.04 1089.58 2355.28 1061C2340.52 1032.41 2333.14 996.601 2333.14 953.566V803.257H2301.79C2282.12 803.257 2266.9 798.031 2256.14 787.58C2245.38 777.13 2240.01 762.067 2240.01 742.397C2240.01 722.722 2245.39 707.819 2256.14 697.672C2266.9 687.525 2282.12 682.455 2301.79 682.455H2333.14V625.279C2333.14 598.23 2340.21 577.633 2354.36 563.492C2368.5 549.352 2388.78 542.281 2415.21 542.281C2441.65 542.281 2461.94 549.352 2476.07 563.492C2490.21 577.633 2497.29 598.23 2497.29 625.279V682.455H2572.9C2593.19 682.455 2608.71 687.525 2619.47 697.672C2630.23 707.814 2635.61 722.722 2635.61 742.397C2635.61 762.072 2630.23 777.13 2619.47 787.58C2608.71 798.031 2593.19 803.257 2572.9 803.257H2497.29V948.031C2497.29 970.778 2502.67 987.531 2513.42 998.291C2524.18 1009.05 2541.24 1014.43 2564.6 1014.43C2573.21 1014.43 2581.5 1013.5 2589.5 1011.66C2597.49 1009.81 2604.86 1008.89 2611.63 1008.89C2621.47 1008.28 2629.46 1011.19 2635.61 1017.65C2641.76 1024.11 2644.83 1038.71 2644.83 1061.45C2644.83 1079.9 2642.07 1095.42 2636.53 1108.02C2631 1120.63 2621.16 1129.69 2607.02 1135.23C2598.42 1138.3 2586.73 1140.92 2571.98 1143.07C2557.23 1145.22 2545.24 1146.29 2536.02 1146.29L2536.02 1146.3Z" fill="#7758D1"/>
<path d="M2787.77 608.687C2758.87 608.687 2736.59 601.926 2720.92 588.398C2705.23 574.876 2697.4 555.201 2697.4 529.378C2697.4 504.174 2705.24 484.808 2720.92 471.286C2736.59 457.759 2758.87 450.998 2787.77 450.998C2817.9 450.998 2840.64 457.759 2856.01 471.286C2871.38 484.813 2879.06 504.174 2879.06 529.378C2879.06 555.201 2871.38 574.871 2856.01 588.398C2840.64 601.926 2817.9 608.687 2787.77 608.687Z" fill="#E39DE5"/>
<path d="M2787.77 1144.45C2761.95 1144.45 2741.97 1136.77 2727.83 1121.4C2713.69 1106.03 2706.62 1083.9 2706.62 1055V763.602C2706.62 734.708 2713.69 712.575 2727.83 697.208C2741.97 681.841 2761.95 674.153 2787.77 674.153C2814.2 674.153 2834.64 681.836 2849.09 697.208C2863.54 712.575 2870.76 734.708 2870.76 763.602V1055C2870.76 1083.9 2863.69 1106.03 2849.55 1121.4C2835.41 1136.77 2814.82 1144.45 2787.77 1144.45Z" fill="#7758D1"/>
<path d="M3203.66 1146.3C3157.55 1146.3 3119.59 1139.23 3089.77 1125.09C3059.96 1110.95 3037.67 1089.58 3022.92 1061C3008.16 1032.41 3000.78 996.601 3000.78 953.566V803.257H2969.43C2949.75 803.257 2934.54 798.031 2923.78 787.58C2913.02 777.13 2907.65 762.067 2907.65 742.397C2907.65 722.722 2913.03 707.819 2923.78 697.672C2934.54 687.525 2949.75 682.455 2969.43 682.455H3000.78V625.279C3000.78 598.23 3007.85 577.633 3021.99 563.492C3036.13 549.352 3056.42 542.281 3082.85 542.281C3109.29 542.281 3129.58 549.352 3143.71 563.492C3157.85 577.633 3164.92 598.23 3164.92 625.279V682.455H3240.54C3260.83 682.455 3276.35 687.525 3287.11 697.672C3297.87 707.814 3303.25 722.722 3303.25 742.397C3303.25 762.072 3297.87 777.13 3287.11 787.58C3276.35 798.031 3260.82 803.257 3240.54 803.257H3164.92V948.031C3164.92 970.778 3170.3 987.531 3181.06 998.291C3191.82 1009.05 3208.87 1014.43 3232.24 1014.43C3240.85 1014.43 3249.14 1013.5 3257.13 1011.66C3265.13 1009.81 3272.5 1008.89 3279.27 1008.89C3289.11 1008.28 3297.1 1011.19 3303.25 1017.65C3309.39 1024.11 3312.47 1038.71 3312.47 1061.45C3312.47 1079.9 3309.7 1095.42 3304.17 1108.02C3298.63 1120.63 3288.8 1129.69 3274.66 1135.23C3266.06 1138.3 3254.37 1140.92 3239.62 1143.07C3224.87 1145.22 3212.87 1146.29 3203.65 1146.29L3203.66 1146.3Z" fill="#7758D1"/>
</g>
<defs>
<clipPath id="clip0_834_1220">
<rect width="3312.47" height="1353.42" fill="white"/>
</clipPath>
</defs>
</svg>