<svg width="180" height="150" viewBox="0 0 180 150" fill="none" xmlns="http://www.w3.org/2000/svg">
<g clip-path="url(#clip0_835_1192)">
<path d="M38.8557 66.9509C38.8557 72.6146 36.6044 77.2051 33.8275 77.2051C31.0509 77.2051 28.7993 72.6146 28.7993 66.9509C28.7993 61.2879 31.0509 56.6968 33.8275 56.6968C36.6047 56.6968 38.8557 61.2873 38.8557 66.9509Z" fill="#E39DE5"/>
<path d="M25.7048 66.9509C25.7048 72.6146 23.4535 77.2051 20.6766 77.2051C17.9 77.2051 15.6484 72.6146 15.6484 66.9509C15.6484 61.2879 17.9 56.6968 20.6766 56.6968C23.4538 56.6968 25.7048 61.2873 25.7048 66.9509Z" fill="#E39DE5"/>
<path d="M41.9497 66.9509C41.9497 72.6146 44.2007 77.2051 46.9779 77.2051C49.7545 77.2051 52.0058 72.6146 52.0058 66.9509C52.0058 61.2879 49.7548 56.6968 46.9779 56.6968C44.2007 56.6968 41.9497 61.2873 41.9497 66.9509Z" fill="#E39DE5"/>
<path d="M57.2092 46.4521C54.8614 48.1133 52.2885 46.1082 50.8896 41.9113C46.8129 29.7005 40.0631 22.4153 32.8291 22.4153C29.132 22.4153 25.6453 24.3016 22.5876 27.6251C22.3778 27.8497 22.173 28.0742 21.9681 28.3283C7.64446 44.6107 3.03322 83.1584 8.95873 112.848C3.40814 100.857 0.000488281 84.7049 0.000488281 66.9557C0.000488281 30.0297 14.7286 0 32.8291 0C43.7504 0 53.9273 11.023 60.0472 29.5061C62.0209 35.4694 60.8118 43.9075 57.2095 46.4521H57.2092Z" fill="#7758D1"/>
<path d="M60.2069 103.911C54.0968 122.693 43.8654 133.911 32.8292 133.911C30.2116 133.911 27.6636 133.267 25.2203 132.075C24.1163 131.536 22.9522 131.975 22.0282 133.317L11.0919 149.185C9.55304 151.426 7.45473 148.726 7.78938 144.924L9.99287 119.759C10.2076 117.249 9.81816 114.704 8.95878 112.848C3.03327 83.1576 7.64451 44.61 21.9682 28.3281C15.4134 36.0176 10.9922 50.4592 10.9922 66.9555C10.9922 91.5112 20.7889 111.491 32.8292 111.491C40.1683 111.491 46.9781 104.026 51.0447 91.5219C52.7231 86.3664 56.1302 84.96 58.6634 88.3727C61.1914 91.7961 61.8807 98.7568 60.2069 103.912V103.911Z" fill="#E39DE5"/>
<path d="M70.4604 126.84C69.0574 126.84 67.9718 126.056 67.2034 124.489C66.435 122.922 66.0508 120.64 66.0508 117.642V62.1459C66.0508 59.148 66.435 56.8657 67.2034 55.2986C67.9718 53.7314 69.0574 52.9478 70.4604 52.9478C71.8969 52.9478 73.0075 53.7314 73.7927 55.2986C74.5776 56.8657 74.9702 59.148 74.9702 62.1459V84.4258H74.1685C74.9702 81.2235 76.1144 78.7705 77.6011 77.0673C79.0877 75.3642 80.783 74.5121 82.6872 74.5121C84.6583 74.5121 86.2782 75.2785 87.5479 76.8115C88.8173 78.3444 89.7693 80.7294 90.4042 83.9655C91.039 87.2021 91.3563 91.2732 91.3563 96.1786V117.641C91.3563 120.639 90.9721 122.922 90.2037 124.489C89.4353 126.056 88.3328 126.839 86.8966 126.839C85.46 126.839 84.3575 126.056 83.5894 124.489C82.821 122.921 82.4368 120.639 82.4368 117.641V96.8943C82.4368 93.8284 82.1781 91.6478 81.6601 90.3536C81.1423 89.0589 80.3823 88.4118 79.3801 88.4118C78.0438 88.4118 76.9746 89.2805 76.1729 91.0179C75.3712 92.7553 74.9702 95.0889 74.9702 98.0188V117.641C74.9702 123.774 73.467 126.839 70.4604 126.839V126.84Z" fill="#7758D1"/>
<path d="M104.986 127.045C103.082 127.045 101.403 126.329 99.9502 124.898C98.4969 123.468 97.3611 121.509 96.5429 119.022C95.7244 116.535 95.3149 113.69 95.3149 110.488C95.3149 106.809 95.7826 103.913 96.7179 101.801C97.6535 99.6889 99.1566 98.1725 101.228 97.253C103.299 96.3335 106.055 95.8731 109.496 95.8731H112.252V104.458H109.496C108.193 104.458 107.116 104.645 106.264 105.02C105.412 105.395 104.785 105.974 104.385 106.758C103.984 107.541 103.784 108.547 103.784 109.773C103.784 111.34 104.059 112.634 104.61 113.657C105.162 114.678 105.955 115.189 106.991 115.189C107.826 115.189 108.569 114.815 109.221 114.065C109.872 113.316 110.398 112.277 110.799 110.948C111.2 109.619 111.4 108.069 111.4 106.297V94.4419C111.4 91.9888 111.091 90.2514 110.473 89.2297C109.855 88.2073 108.795 87.6968 107.291 87.6968C106.49 87.6968 105.588 87.8841 104.586 88.2588C103.583 88.6334 102.464 89.2976 101.228 90.252C100.326 90.9334 99.5579 91.0356 98.9231 90.5587C98.2883 90.0818 97.7957 89.264 97.4448 88.1057C97.094 86.9474 96.9271 85.687 96.9436 84.3242C96.9601 82.9615 97.1774 81.6667 97.5949 80.4405C98.0124 79.2143 98.6554 78.2599 99.524 77.5791C101.127 76.3529 102.606 75.535 103.959 75.1261C105.312 74.7172 106.556 74.5127 107.692 74.5127C110.431 74.5127 112.695 75.3134 114.482 76.9143C116.269 78.5152 117.605 80.9682 118.491 84.2728C119.376 87.5774 119.818 91.8186 119.818 96.9971V117.642C119.818 120.64 119.468 122.923 118.766 124.489C118.065 126.056 117.046 126.84 115.709 126.84C114.34 126.84 113.296 126.056 112.577 124.489C111.859 122.922 111.5 120.64 111.5 117.642V114.984L111.801 116.415C111.634 118.596 111.25 120.469 110.648 122.036C110.047 123.603 109.262 124.83 108.293 125.715C107.325 126.601 106.222 127.044 104.986 127.044V127.045Z" fill="#7758D1"/>
<path d="M137.808 127.044C135.303 127.044 133.24 126.261 131.619 124.694C129.999 123.126 128.788 120.758 127.986 117.59C127.185 114.422 126.784 110.453 126.784 105.684V89.0251H125.08C124.011 89.0251 123.184 88.4459 122.599 87.2877C122.015 86.1294 121.723 84.46 121.723 82.28C121.723 80.0994 122.015 78.4477 122.599 77.3231C123.184 76.1985 124.011 75.6365 125.08 75.6365H126.784V69.2998C126.784 66.3019 127.168 64.0191 127.936 62.4519C128.705 60.8847 129.807 60.1011 131.243 60.1011C132.68 60.1011 133.782 60.8847 134.55 62.4519C135.319 64.0191 135.703 66.3019 135.703 69.2998V75.6365H139.812C140.915 75.6365 141.758 76.1985 142.342 77.3231C142.927 78.4471 143.219 80.0994 143.219 82.28C143.219 84.4606 142.927 86.1294 142.342 87.2877C141.758 88.4459 140.914 89.0251 139.812 89.0251H135.703V105.071C135.703 107.592 135.995 109.448 136.58 110.641C137.164 111.833 138.091 112.429 139.361 112.429C139.829 112.429 140.279 112.327 140.714 112.122C141.148 111.918 141.549 111.816 141.917 111.816C142.451 111.748 142.885 112.071 143.219 112.787C143.554 113.502 143.721 115.12 143.721 117.641C143.721 119.685 143.57 121.406 143.27 122.803C142.969 124.2 142.435 125.204 141.666 125.818C141.199 126.159 140.564 126.448 139.762 126.686C138.96 126.925 138.309 127.044 137.808 127.044L137.808 127.044Z" fill="#7758D1"/>
<path d="M151.488 67.4611C149.918 67.4611 148.707 66.7118 147.855 65.2125C147.003 63.7139 146.577 61.5333 146.577 58.6713C146.577 55.8779 147.003 53.7316 147.855 52.2329C148.707 50.7337 149.918 49.9844 151.488 49.9844C153.125 49.9844 154.36 50.7337 155.196 52.2329C156.031 53.7322 156.449 55.8779 156.449 58.6713C156.449 61.5333 156.031 63.7133 155.196 65.2125C154.361 66.7118 153.125 67.4611 151.488 67.4611Z" fill="#E39DE5"/>
<path d="M151.488 126.84C150.085 126.84 148.999 125.989 148.231 124.285C147.462 122.582 147.078 120.129 147.078 116.927V84.6306C147.078 81.4282 147.462 78.9752 148.231 77.2721C148.999 75.5689 150.085 74.7168 151.488 74.7168C152.924 74.7168 154.035 75.5684 154.82 77.2721C155.605 78.9752 155.998 81.4282 155.998 84.6306V116.927C155.998 120.129 155.613 122.582 154.845 124.285C154.077 125.989 152.958 126.84 151.488 126.84Z" fill="#7758D1"/>
<path d="M174.087 127.044C171.582 127.044 169.519 126.261 167.899 124.694C166.278 123.126 165.068 120.758 164.266 117.59C163.464 114.422 163.063 110.453 163.063 105.684V89.0251H161.359C160.29 89.0251 159.463 88.4459 158.879 87.2877C158.294 86.1294 158.002 84.46 158.002 82.28C158.002 80.0994 158.294 78.4477 158.879 77.3231C159.463 76.1985 160.29 75.6365 161.359 75.6365H163.063V69.2998C163.063 66.3019 163.447 64.0191 164.215 62.4519C164.984 60.8847 166.086 60.1011 167.523 60.1011C168.959 60.1011 170.062 60.8847 170.83 62.4519C171.598 64.0191 171.982 66.3019 171.982 69.2998V75.6365H176.091C177.194 75.6365 178.037 76.1985 178.622 77.3231C179.206 78.4471 179.499 80.0994 179.499 82.28C179.499 84.4606 179.206 86.1294 178.622 87.2877C178.037 88.4459 177.194 89.0251 176.091 89.0251H171.982V105.071C171.982 107.592 172.275 109.448 172.859 110.641C173.444 111.833 174.371 112.429 175.64 112.429C176.108 112.429 176.559 112.327 176.993 112.122C177.427 111.918 177.828 111.816 178.196 111.816C178.73 111.748 179.165 112.071 179.499 112.787C179.833 113.502 180 115.12 180 117.641C180 119.685 179.85 121.406 179.549 122.803C179.248 124.2 178.714 125.204 177.945 125.818C177.478 126.159 176.843 126.448 176.041 126.686C175.24 126.925 174.588 127.044 174.087 127.044L174.087 127.044Z" fill="#7758D1"/>
</g>
<defs>
<clipPath id="clip0_835_1192">
<rect width="180" height="150" fill="white"/>
</clipPath>
</defs>
</svg>
