<svg width="50" height="50" viewBox="0 0 50 50" fill="none" xmlns="http://www.w3.org/2000/svg">
<path fill-rule="evenodd" clip-rule="evenodd" d="M25.9646 4.80642C26.5484 4.56458 27.2205 4.69826 27.6674 5.14513L46.4174 23.8951C47.0275 24.5053 47.0275 25.4946 46.4174 26.1048L27.6674 44.8548C27.2205 45.3017 26.5484 45.4354 25.9646 45.1935C25.3807 44.9517 25 44.382 25 43.75V35.9375H20.3125C19.4496 35.9375 18.75 35.2379 18.75 34.375V15.625C18.75 14.762 19.4496 14.0625 20.3125 14.0625H25V6.24998C25 5.61801 25.3807 5.04827 25.9646 4.80642ZM28.125 10.0222V15.625C28.125 16.4879 27.4254 17.1875 26.5625 17.1875H21.875V32.8125H26.5625C27.4254 32.8125 28.125 33.512 28.125 34.375V39.9778L43.1028 25L28.125 10.0222Z" fill="white"/>
<path fill-rule="evenodd" clip-rule="evenodd" d="M25.9646 4.80642C26.5484 4.56458 27.2205 4.69826 27.6674 5.14513L46.4174 23.8951C47.0275 24.5053 47.0275 25.4946 46.4174 26.1048L27.6674 44.8548C27.2205 45.3017 26.5484 45.4354 25.9646 45.1935C25.3807 44.9517 25 44.382 25 43.75V35.9375H20.3125C19.4496 35.9375 18.75 35.2379 18.75 34.375V15.625C18.75 14.762 19.4496 14.0625 20.3125 14.0625H25V6.24998C25 5.61801 25.3807 5.04827 25.9646 4.80642ZM28.125 10.0222V15.625C28.125 16.4879 27.4254 17.1875 26.5625 17.1875H21.875V32.8125H26.5625C27.4254 32.8125 28.125 33.512 28.125 34.375V39.9778L43.1028 25L28.125 10.0222Z" stroke="white" stroke-linecap="round" stroke-linejoin="round"/>
<path fill-rule="evenodd" clip-rule="evenodd" d="M25.9646 4.80642C26.5484 4.56458 27.2205 4.69826 27.6674 5.14513L46.4174 23.8951C47.0275 24.5053 47.0275 25.4946 46.4174 26.1048L27.6674 44.8548C27.2205 45.3017 26.5484 45.4354 25.9646 45.1935C25.3807 44.9517 25 44.382 25 43.75V35.9375H20.3125C19.4496 35.9375 18.75 35.2379 18.75 34.375V15.625C18.75 14.762 19.4496 14.0625 20.3125 14.0625H25V6.24998C25 5.61801 25.3807 5.04827 25.9646 4.80642ZM28.125 10.0222V15.625C28.125 16.4879 27.4254 17.1875 26.5625 17.1875H21.875V32.8125H26.5625C27.4254 32.8125 28.125 33.512 28.125 34.375V39.9778L43.1028 25L28.125 10.0222Z" stroke="white" stroke-linecap="round" stroke-linejoin="round"/>
<path fill-rule="evenodd" clip-rule="evenodd" d="M25.9646 4.80642C26.5484 4.56458 27.2205 4.69826 27.6674 5.14513L46.4174 23.8951C47.0275 24.5053 47.0275 25.4946 46.4174 26.1048L27.6674 44.8548C27.2205 45.3017 26.5484 45.4354 25.9646 45.1935C25.3807 44.9517 25 44.382 25 43.75V35.9375H20.3125C19.4496 35.9375 18.75 35.2379 18.75 34.375V15.625C18.75 14.762 19.4496 14.0625 20.3125 14.0625H25V6.24998C25 5.61801 25.3807 5.04827 25.9646 4.80642ZM28.125 10.0222V15.625C28.125 16.4879 27.4254 17.1875 26.5625 17.1875H21.875V32.8125H26.5625C27.4254 32.8125 28.125 33.512 28.125 34.375V39.9778L43.1028 25L28.125 10.0222Z" stroke="white" stroke-linecap="round" stroke-linejoin="round"/>
<path fill-rule="evenodd" clip-rule="evenodd" d="M25.9646 4.80642C26.5484 4.56458 27.2205 4.69826 27.6674 5.14513L46.4174 23.8951C47.0275 24.5053 47.0275 25.4946 46.4174 26.1048L27.6674 44.8548C27.2205 45.3017 26.5484 45.4354 25.9646 45.1935C25.3807 44.9517 25 44.382 25 43.75V35.9375H20.3125C19.4496 35.9375 18.75 35.2379 18.75 34.375V15.625C18.75 14.762 19.4496 14.0625 20.3125 14.0625H25V6.24998C25 5.61801 25.3807 5.04827 25.9646 4.80642ZM28.125 10.0222V15.625C28.125 16.4879 27.4254 17.1875 26.5625 17.1875H21.875V32.8125H26.5625C27.4254 32.8125 28.125 33.512 28.125 34.375V39.9778L43.1028 25L28.125 10.0222Z" stroke="white" stroke-linecap="round" stroke-linejoin="round"/>
<path fill-rule="evenodd" clip-rule="evenodd" d="M25.9646 4.80642C26.5484 4.56458 27.2205 4.69826 27.6674 5.14513L46.4174 23.8951C47.0275 24.5053 47.0275 25.4946 46.4174 26.1048L27.6674 44.8548C27.2205 45.3017 26.5484 45.4354 25.9646 45.1935C25.3807 44.9517 25 44.382 25 43.75V35.9375H20.3125C19.4496 35.9375 18.75 35.2379 18.75 34.375V15.625C18.75 14.762 19.4496 14.0625 20.3125 14.0625H25V6.24998C25 5.61801 25.3807 5.04827 25.9646 4.80642ZM28.125 10.0222V15.625C28.125 16.4879 27.4254 17.1875 26.5625 17.1875H21.875V32.8125H26.5625C27.4254 32.8125 28.125 33.512 28.125 34.375V39.9778L43.1028 25L28.125 10.0222Z" stroke="white" stroke-linecap="round" stroke-linejoin="round"/>
<path fill-rule="evenodd" clip-rule="evenodd" d="M7.8125 14.0625C8.67545 14.0625 9.375 14.7621 9.375 15.625V34.375C9.375 35.2379 8.67545 35.9375 7.8125 35.9375C6.94956 35.9375 6.25 35.2379 6.25 34.375V15.625C6.25 14.7621 6.94956 14.0625 7.8125 14.0625Z" fill="white" stroke="white" stroke-linecap="round" stroke-linejoin="round"/>
<path fill-rule="evenodd" clip-rule="evenodd" d="M14.0625 14.0625C14.9254 14.0625 15.625 14.7621 15.625 15.625V34.375C15.625 35.2379 14.9254 35.9375 14.0625 35.9375C13.1996 35.9375 12.5 35.2379 12.5 34.375V15.625C12.5 14.7621 13.1996 14.0625 14.0625 14.0625Z" fill="white" stroke="white" stroke-linecap="round" stroke-linejoin="round"/>
</svg>
