<svg width="118" height="30" viewBox="0 0 118 30" fill="none" xmlns="http://www.w3.org/2000/svg">
<path fill-rule="evenodd" clip-rule="evenodd" d="M5.64143 7.03385C5.83568 6.92558 6.0553 6.87109 6.27764 6.87601C6.4995 6.88091 6.71605 6.9448 6.90505 7.06108C6.90545 7.06133 6.90585 7.06158 6.90625 7.06182L18.1431 13.9336C18.3268 14.0433 18.4791 14.1986 18.5851 14.3845C18.6921 14.572 18.7483 14.7842 18.7483 15C18.7483 15.2159 18.6921 15.428 18.5851 15.6155C18.4791 15.8014 18.3268 15.9568 18.1431 16.0665L6.90625 22.9382C6.90578 22.9385 6.90532 22.9388 6.90485 22.9391C6.7159 23.0553 6.49943 23.1191 6.27764 23.124C6.0553 23.1289 5.83568 23.0745 5.64143 22.9662C5.44717 22.8579 5.28532 22.6998 5.17257 22.5081C5.05982 22.3164 5.00025 22.0981 5 21.8757V8.12432C5.00025 7.90194 5.05982 7.68364 5.17257 7.49195C5.28532 7.30026 5.44717 7.14212 5.64143 7.03385ZM17.8203 14.4688L17.498 14.9958L17.5021 14.9934C17.501 14.994 17.5 14.995 17.4994 14.9961C17.4987 14.9973 17.4983 14.9987 17.4983 15C17.4983 15.0014 17.4987 15.0027 17.4994 15.0039C17.5 15.0051 17.501 15.006 17.5022 15.0067L17.8203 14.4688ZM17.4911 15L6.25 8.12571L6.25 21.8743L6.25205 21.8731L17.4911 15Z" fill="#E39DE5"/>
<path fill-rule="evenodd" clip-rule="evenodd" d="M65.8906 26.25C66.2876 26.25 66.6094 25.8303 66.6094 25.3125V4.6875C66.6094 4.16973 66.2876 3.75 65.8906 3.75C65.4937 3.75 65.1719 4.16973 65.1719 4.6875V25.3125C65.1719 25.8303 65.4937 26.25 65.8906 26.25Z" fill="#44444C"/>
<path fill-rule="evenodd" clip-rule="evenodd" d="M69.7001 26.5C70.1235 26.5 70.4668 26.0803 70.4668 25.5625V4.9375C70.4668 4.41973 70.1235 4 69.7001 4C69.2767 4 68.9335 4.41973 68.9335 4.9375V25.5625C68.9335 26.0803 69.2767 26.5 69.7001 26.5Z" fill="#44444C"/>
<path fill-rule="evenodd" clip-rule="evenodd" d="M62.2969 23.4375C62.6938 23.4375 63.0156 23.0178 63.0156 22.5V7.5C63.0156 6.98223 62.6938 6.5625 62.2969 6.5625C61.8999 6.5625 61.5781 6.98223 61.5781 7.5V22.5C61.5781 23.0178 61.8999 23.4375 62.2969 23.4375Z" fill="#44444C"/>
<path fill-rule="evenodd" clip-rule="evenodd" d="M58.7031 26.25C59.1001 26.25 59.4219 25.8303 59.4219 25.3125V4.6875C59.4219 4.16973 59.1001 3.75 58.7031 3.75C58.3062 3.75 57.9844 4.16973 57.9844 4.6875V25.3125C57.9844 25.8303 58.3062 26.25 58.7031 26.25Z" fill="#44444C"/>
<path fill-rule="evenodd" clip-rule="evenodd" d="M55.1094 23.4375C55.5063 23.4375 55.8281 23.0178 55.8281 22.5V7.5C55.8281 6.98223 55.5063 6.5625 55.1094 6.5625C54.7124 6.5625 54.3906 6.98223 54.3906 7.5V22.5C54.3906 23.0178 54.7124 23.4375 55.1094 23.4375Z" fill="#44444C"/>
<path fill-rule="evenodd" clip-rule="evenodd" d="M77.0469 26.25C76.719 26.25 76.4531 25.8303 76.4531 25.3125V4.6875C76.4531 4.16973 76.719 3.75 77.0469 3.75C77.3748 3.75 77.6406 4.16973 77.6406 4.6875V25.3125C77.6406 25.8303 77.3748 26.25 77.0469 26.25Z" fill="#44444C"/>
<path fill-rule="evenodd" clip-rule="evenodd" d="M73.8999 26.5C73.5502 26.5 73.2666 26.0803 73.2666 25.5625V4.9375C73.2666 4.41973 73.5502 4 73.8999 4C74.2497 4 74.5333 4.41973 74.5333 4.9375V25.5625C74.5333 26.0803 74.2497 26.5 73.8999 26.5Z" fill="#44444C"/>
<path fill-rule="evenodd" clip-rule="evenodd" d="M80.0156 23.4375C79.6877 23.4375 79.4219 23.0178 79.4219 22.5V7.5C79.4219 6.98223 79.6877 6.5625 80.0156 6.5625C80.3435 6.5625 80.6094 6.98223 80.6094 7.5V22.5C80.6094 23.0178 80.3435 23.4375 80.0156 23.4375Z" fill="#44444C"/>
<path fill-rule="evenodd" clip-rule="evenodd" d="M82.9844 26.25C82.6565 26.25 82.3906 25.8303 82.3906 25.3125V4.6875C82.3906 4.16973 82.6565 3.75 82.9844 3.75C83.3123 3.75 83.5781 4.16973 83.5781 4.6875V25.3125C83.5781 25.8303 83.3123 26.25 82.9844 26.25Z" fill="#44444C"/>
<path fill-rule="evenodd" clip-rule="evenodd" d="M85.9531 23.4375C85.6252 23.4375 85.3594 23.0178 85.3594 22.5V7.5C85.3594 6.98223 85.6252 6.5625 85.9531 6.5625C86.281 6.5625 86.5469 6.98223 86.5469 7.5V22.5C86.5469 23.0178 86.281 23.4375 85.9531 23.4375Z" fill="#44444C"/>
<path fill-rule="evenodd" clip-rule="evenodd" d="M31.8906 26.25C32.2876 26.25 32.6094 25.8303 32.6094 25.3125V4.6875C32.6094 4.16973 32.2876 3.75 31.8906 3.75C31.4937 3.75 31.1719 4.16973 31.1719 4.6875V25.3125C31.1719 25.8303 31.4937 26.25 31.8906 26.25Z" fill="#E39DE5"/>
<path fill-rule="evenodd" clip-rule="evenodd" d="M35.7001 26.5C36.1235 26.5 36.4668 26.0803 36.4668 25.5625V4.9375C36.4668 4.41973 36.1235 4 35.7001 4C35.2767 4 34.9335 4.41973 34.9335 4.9375V25.5625C34.9335 26.0803 35.2767 26.5 35.7001 26.5Z" fill="#E39DE5"/>
<path fill-rule="evenodd" clip-rule="evenodd" d="M28.2969 23.4375C28.6938 23.4375 29.0156 23.0178 29.0156 22.5V7.5C29.0156 6.98223 28.6938 6.5625 28.2969 6.5625C27.8999 6.5625 27.5781 6.98223 27.5781 7.5V22.5C27.5781 23.0178 27.8999 23.4375 28.2969 23.4375Z" fill="#E39DE5"/>
<path fill-rule="evenodd" clip-rule="evenodd" d="M24.7031 26.25C25.1001 26.25 25.4219 25.8303 25.4219 25.3125V4.6875C25.4219 4.16973 25.1001 3.75 24.7031 3.75C24.3062 3.75 23.9844 4.16973 23.9844 4.6875V25.3125C23.9844 25.8303 24.3062 26.25 24.7031 26.25Z" fill="#E39DE5"/>
<path fill-rule="evenodd" clip-rule="evenodd" d="M21.1094 23.4375C21.5063 23.4375 21.8281 23.0178 21.8281 22.5V7.5C21.8281 6.98223 21.5063 6.5625 21.1094 6.5625C20.7124 6.5625 20.3906 6.98223 20.3906 7.5V22.5C20.3906 23.0178 20.7124 23.4375 21.1094 23.4375Z" fill="#E39DE5"/>
<path fill-rule="evenodd" clip-rule="evenodd" d="M43.0469 26.25C42.719 26.25 42.4531 25.8303 42.4531 25.3125V4.6875C42.4531 4.16973 42.719 3.75 43.0469 3.75C43.3748 3.75 43.6406 4.16973 43.6406 4.6875V25.3125C43.6406 25.8303 43.3748 26.25 43.0469 26.25Z" fill="#E39DE5"/>
<path fill-rule="evenodd" clip-rule="evenodd" d="M39.8999 26.5C39.5502 26.5 39.2666 26.0803 39.2666 25.5625V4.9375C39.2666 4.41973 39.5502 4 39.8999 4C40.2497 4 40.5333 4.41973 40.5333 4.9375V25.5625C40.5333 26.0803 40.2497 26.5 39.8999 26.5Z" fill="#E39DE5"/>
<path fill-rule="evenodd" clip-rule="evenodd" d="M46.0156 23.4375C45.6877 23.4375 45.4219 23.0178 45.4219 22.5V7.5C45.4219 6.98223 45.6877 6.5625 46.0156 6.5625C46.3435 6.5625 46.6094 6.98223 46.6094 7.5V22.5C46.6094 23.0178 46.3435 23.4375 46.0156 23.4375Z" fill="#E39DE5"/>
<path fill-rule="evenodd" clip-rule="evenodd" d="M48.9844 26.25C48.6565 26.25 48.3906 25.8303 48.3906 25.3125V4.6875C48.3906 4.16973 48.6565 3.75 48.9844 3.75C49.3123 3.75 49.5781 4.16973 49.5781 4.6875V25.3125C49.5781 25.8303 49.3123 26.25 48.9844 26.25Z" fill="#E39DE5"/>
<path fill-rule="evenodd" clip-rule="evenodd" d="M51.9531 23.4375C51.6252 23.4375 51.3594 23.0178 51.3594 22.5V7.5C51.3594 6.98223 51.6252 6.5625 51.9531 6.5625C52.281 6.5625 52.5469 6.98223 52.5469 7.5V22.5C52.5469 23.0178 52.281 23.4375 51.9531 23.4375Z" fill="#E39DE5"/>
<path fill-rule="evenodd" clip-rule="evenodd" d="M65.8906 26.25C66.2876 26.25 66.6094 25.8303 66.6094 25.3125V4.6875C66.6094 4.16973 66.2876 3.75 65.8906 3.75C65.4937 3.75 65.1719 4.16973 65.1719 4.6875V25.3125C65.1719 25.8303 65.4937 26.25 65.8906 26.25Z" fill="#E39DE5"/>
<path fill-rule="evenodd" clip-rule="evenodd" d="M69.7001 26.5C70.1235 26.5 70.4668 26.0803 70.4668 25.5625V4.9375C70.4668 4.41973 70.1235 4 69.7001 4C69.2767 4 68.9335 4.41973 68.9335 4.9375V25.5625C68.9335 26.0803 69.2767 26.5 69.7001 26.5Z" fill="#E39DE5"/>
<path fill-rule="evenodd" clip-rule="evenodd" d="M62.2969 23.4375C62.6938 23.4375 63.0156 23.0178 63.0156 22.5V7.5C63.0156 6.98223 62.6938 6.5625 62.2969 6.5625C61.8999 6.5625 61.5781 6.98223 61.5781 7.5V22.5C61.5781 23.0178 61.8999 23.4375 62.2969 23.4375Z" fill="#E39DE5"/>
<path fill-rule="evenodd" clip-rule="evenodd" d="M58.7031 26.25C59.1001 26.25 59.4219 25.8303 59.4219 25.3125V4.6875C59.4219 4.16973 59.1001 3.75 58.7031 3.75C58.3062 3.75 57.9844 4.16973 57.9844 4.6875V25.3125C57.9844 25.8303 58.3062 26.25 58.7031 26.25Z" fill="#E39DE5"/>
<path fill-rule="evenodd" clip-rule="evenodd" d="M55.1094 23.4375C55.5063 23.4375 55.8281 23.0178 55.8281 22.5V7.5C55.8281 6.98223 55.5063 6.5625 55.1094 6.5625C54.7124 6.5625 54.3906 6.98223 54.3906 7.5V22.5C54.3906 23.0178 54.7124 23.4375 55.1094 23.4375Z" fill="#E39DE5"/>
<path fill-rule="evenodd" clip-rule="evenodd" d="M77.0469 26.25C76.719 26.25 76.4531 25.8303 76.4531 25.3125V4.6875C76.4531 4.16973 76.719 3.75 77.0469 3.75C77.3748 3.75 77.6406 4.16973 77.6406 4.6875V25.3125C77.6406 25.8303 77.3748 26.25 77.0469 26.25Z" fill="#44444C"/>
<path fill-rule="evenodd" clip-rule="evenodd" d="M73.8999 26.5C73.5502 26.5 73.2666 26.0803 73.2666 25.5625V4.9375C73.2666 4.41973 73.5502 4 73.8999 4C74.2497 4 74.5333 4.41973 74.5333 4.9375V25.5625C74.5333 26.0803 74.2497 26.5 73.8999 26.5Z" fill="#44444C"/>
<path fill-rule="evenodd" clip-rule="evenodd" d="M80.0156 23.4375C79.6877 23.4375 79.4219 23.0178 79.4219 22.5V7.5C79.4219 6.98223 79.6877 6.5625 80.0156 6.5625C80.3435 6.5625 80.6094 6.98223 80.6094 7.5V22.5C80.6094 23.0178 80.3435 23.4375 80.0156 23.4375Z" fill="#44444C"/>
<path fill-rule="evenodd" clip-rule="evenodd" d="M82.9844 26.25C82.6565 26.25 82.3906 25.8303 82.3906 25.3125V4.6875C82.3906 4.16973 82.6565 3.75 82.9844 3.75C83.3123 3.75 83.5781 4.16973 83.5781 4.6875V25.3125C83.5781 25.8303 83.3123 26.25 82.9844 26.25Z" fill="#44444C"/>
<path fill-rule="evenodd" clip-rule="evenodd" d="M85.9531 23.4375C85.6252 23.4375 85.3594 23.0178 85.3594 22.5V7.5C85.3594 6.98223 85.6252 6.5625 85.9531 6.5625C86.281 6.5625 86.5469 6.98223 86.5469 7.5V22.5C86.5469 23.0178 86.281 23.4375 85.9531 23.4375Z" fill="#44444C"/>
<path fill-rule="evenodd" clip-rule="evenodd" d="M104.729 24.625C104.417 24.625 104.164 24.2472 104.164 23.7812V5.21875C104.164 4.75276 104.417 4.375 104.729 4.375C105.041 4.375 105.294 4.75276 105.294 5.21875V23.7812C105.294 24.2472 105.041 24.625 104.729 24.625Z" fill="#44444C"/>
<path fill-rule="evenodd" clip-rule="evenodd" d="M101.736 24.85C101.403 24.85 101.134 24.4722 101.134 24.0063V5.44376C101.134 4.97777 101.403 4.60001 101.736 4.60001C102.069 4.60001 102.339 4.97777 102.339 5.44376V24.0063C102.339 24.4722 102.069 24.85 101.736 24.85Z" fill="#44444C"/>
<path fill-rule="evenodd" clip-rule="evenodd" d="M107.553 22.0938C107.241 22.0938 106.988 21.716 106.988 21.25V7.75C106.988 7.28401 107.241 6.90625 107.553 6.90625C107.865 6.90625 108.118 7.28401 108.118 7.75V21.25C108.118 21.716 107.865 22.0938 107.553 22.0938Z" fill="#44444C"/>
<path fill-rule="evenodd" clip-rule="evenodd" d="M110.376 24.625C110.064 24.625 109.812 24.2472 109.812 23.7812V5.21875C109.812 4.75276 110.064 4.375 110.376 4.375C110.688 4.375 110.941 4.75276 110.941 5.21875V23.7812C110.941 24.2472 110.688 24.625 110.376 24.625Z" fill="#44444C"/>
<path fill-rule="evenodd" clip-rule="evenodd" d="M113.199 22.0938C112.888 22.0938 112.635 21.716 112.635 21.25V7.75C112.635 7.28401 112.888 6.90625 113.199 6.90625C113.511 6.90625 113.764 7.28401 113.764 7.75V21.25C113.764 21.716 113.511 22.0938 113.199 22.0938Z" fill="#44444C"/>
<path fill-rule="evenodd" clip-rule="evenodd" d="M95.9632 24.625C96.2208 24.625 96.4297 24.2472 96.4297 23.7812V5.21875C96.4297 4.75276 96.2208 4.375 95.9632 4.375C95.7055 4.375 95.4967 4.75276 95.4967 5.21875V23.7812C95.4967 24.2472 95.7055 24.625 95.9632 24.625Z" fill="#44444C"/>
<path fill-rule="evenodd" clip-rule="evenodd" d="M98.436 24.85C98.7108 24.85 98.9336 24.4722 98.9336 24.0063V5.44376C98.9336 4.97777 98.7108 4.60001 98.436 4.60001C98.1611 4.60001 97.9384 4.97777 97.9384 5.44376V24.0063C97.9384 24.4722 98.1611 24.85 98.436 24.85Z" fill="#44444C"/>
<path fill-rule="evenodd" clip-rule="evenodd" d="M93.6311 22.0938C93.8888 22.0938 94.0977 21.716 94.0977 21.25V7.75C94.0977 7.28401 93.8888 6.90625 93.6311 6.90625C93.3735 6.90625 93.1646 7.28401 93.1646 7.75V21.25C93.1646 21.716 93.3735 22.0938 93.6311 22.0938Z" fill="#44444C"/>
<path fill-rule="evenodd" clip-rule="evenodd" d="M91.2981 24.625C91.5558 24.625 91.7646 24.2472 91.7646 23.7812V5.21875C91.7646 4.75276 91.5558 4.375 91.2981 4.375C91.0405 4.375 90.8316 4.75276 90.8316 5.21875V23.7812C90.8316 24.2472 91.0405 24.625 91.2981 24.625Z" fill="#44444C"/>
<path fill-rule="evenodd" clip-rule="evenodd" d="M88.9651 22.0938C89.2228 22.0938 89.4316 21.716 89.4316 21.25V7.75C89.4316 7.28401 89.2228 6.90625 88.9651 6.90625C88.7075 6.90625 88.4986 7.28401 88.4986 7.75V21.25C88.4986 21.716 88.7075 22.0938 88.9651 22.0938Z" fill="#44444C"/>
</svg>
