<svg width="80" height="80" viewBox="0 0 80 80" fill="none" xmlns="http://www.w3.org/2000/svg">
<path fill-rule="evenodd" clip-rule="evenodd" d="M62.5 7.5C63.8807 7.5 65 8.61929 65 10V25C65 26.3807 63.8807 27.5 62.5 27.5C61.1193 27.5 60 26.3807 60 25V10C60 8.61929 61.1193 7.5 62.5 7.5Z" fill="#7758D1"/>
<path fill-rule="evenodd" clip-rule="evenodd" d="M52.5 17.5C52.5 16.1193 53.6193 15 55 15H70C71.3807 15 72.5 16.1193 72.5 17.5C72.5 18.8807 71.3807 20 70 20H55C53.6193 20 52.5 18.8807 52.5 17.5Z" fill="#7758D1"/>
<path fill-rule="evenodd" clip-rule="evenodd" d="M56.25 47.5C52.7982 47.5 50 50.2982 50 53.75C50 57.2018 52.7982 60 56.25 60C59.7018 60 62.5 57.2018 62.5 53.75C62.5 50.2982 59.7018 47.5 56.25 47.5ZM45 53.75C45 47.5368 50.0368 42.5 56.25 42.5C62.4632 42.5 67.5 47.5368 67.5 53.75C67.5 59.9632 62.4632 65 56.25 65C50.0368 65 45 59.9632 45 53.75Z" fill="#7758D1"/>
<path fill-rule="evenodd" clip-rule="evenodd" d="M16.25 57.5C12.7982 57.5 10 60.2982 10 63.75C10 67.2018 12.7982 70 16.25 70C19.7018 70 22.5 67.2018 22.5 63.75C22.5 60.2982 19.7018 57.5 16.25 57.5ZM5 63.75C5 57.5368 10.0368 52.5 16.25 52.5C22.4632 52.5 27.5 57.5368 27.5 63.75C27.5 69.9632 22.4632 75 16.25 75C10.0368 75 5 69.9632 5 63.75Z" fill="#7758D1"/>
<path fill-rule="evenodd" clip-rule="evenodd" d="M65 34.75C66.3807 34.75 67.5 35.8693 67.5 37.25V53.75C67.5 55.1307 66.3807 56.25 65 56.25C63.6193 56.25 62.5 55.1307 62.5 53.75V37.25C62.5 35.8693 63.6193 34.75 65 34.75Z" fill="#7758D1"/>
<path fill-rule="evenodd" clip-rule="evenodd" d="M45.0819 14.9884C45.4162 16.3281 44.6012 17.6851 43.2616 18.0194L27.5 21.9528V63.75C27.5 65.1307 26.3807 66.25 25 66.25C23.6193 66.25 22.5 65.1307 22.5 63.75V20C22.5 18.8525 23.2813 17.8523 24.3947 17.5744L42.0509 13.1682C43.3905 12.8338 44.7475 13.6488 45.0819 14.9884Z" fill="#7758D1"/>
<path fill-rule="evenodd" clip-rule="evenodd" d="M52.144 28.2055C52.4793 29.5448 51.6653 30.9024 50.3259 31.2377L25.6072 37.4252C24.2678 37.7605 22.9102 36.9465 22.5749 35.6071C22.2397 34.2677 23.0537 32.9101 24.393 32.5748L49.1118 26.3873C50.4512 26.0521 51.8088 26.8661 52.144 28.2055Z" fill="#7758D1"/>
</svg>
