<svg width="80" height="80" viewBox="0 0 80 80" fill="none" xmlns="http://www.w3.org/2000/svg">
<path fill-rule="evenodd" clip-rule="evenodd" d="M40 27.5C34.4772 27.5 30 31.9772 30 37.5C30 43.0228 34.4772 47.5 40 47.5C45.5228 47.5 50 43.0228 50 37.5C50 31.9772 45.5228 27.5 40 27.5ZM25 37.5C25 29.2157 31.7157 22.5 40 22.5C48.2843 22.5 55 29.2157 55 37.5C55 45.7843 48.2843 52.5 40 52.5C31.7157 52.5 25 45.7843 25 37.5Z" fill="#7758D1"/>
<path fill-rule="evenodd" clip-rule="evenodd" d="M40 52.4981C36.3067 52.4981 32.6854 53.5208 29.5377 55.4529C26.3899 57.385 23.8387 60.1509 22.1667 63.4442C21.5417 64.6754 20.037 65.1667 18.8058 64.5417C17.5747 63.9166 17.0833 62.4119 17.7084 61.1808C19.7983 57.0642 22.9874 53.6067 26.9221 51.1916C30.8567 48.7765 35.3833 47.4981 40 47.4981C44.6168 47.4981 49.1434 48.7765 53.078 51.1916C57.0127 53.6067 60.2017 57.0642 62.2917 61.1808C62.9167 62.4119 62.4254 63.9166 61.1943 64.5417C59.9631 65.1667 58.4584 64.6754 57.8334 63.4442C56.1614 60.1509 53.6102 57.385 50.4624 55.4529C47.3147 53.5208 43.6934 52.4981 40 52.4981Z" fill="#7758D1"/>
<path fill-rule="evenodd" clip-rule="evenodd" d="M52.5 17.5C52.5 16.1193 53.6193 15 55 15H70C71.3807 15 72.5 16.1193 72.5 17.5C72.5 18.8807 71.3807 20 70 20H55C53.6193 20 52.5 18.8807 52.5 17.5Z" fill="#7758D1"/>
<path fill-rule="evenodd" clip-rule="evenodd" d="M62.5 7.5C63.8807 7.5 65 8.61929 65 10V25C65 26.3807 63.8807 27.5 62.5 27.5C61.1193 27.5 60 26.3807 60 25V10C60 8.61929 61.1193 7.5 62.5 7.5Z" fill="#7758D1"/>
<path fill-rule="evenodd" clip-rule="evenodd" d="M44.3191 12.8428C42.8927 12.6118 41.4499 12.4972 40.0049 12.5L40 12.5C34.561 12.5 29.2442 14.1128 24.7218 17.1346C20.1995 20.1563 16.6747 24.4512 14.5933 29.4762C12.5119 34.5012 11.9673 40.0305 13.0284 45.365C14.0895 50.6995 16.7086 55.5995 20.5546 59.4454C24.4005 63.2914 29.3006 65.9105 34.635 66.9716C39.9695 68.0327 45.4988 67.4881 50.5238 65.4067C55.5488 63.3253 59.8437 59.8005 62.8654 55.2782C65.8872 50.7558 67.5 45.439 67.5 40L67.5 39.9951C67.5029 38.5501 67.3882 37.1073 67.1572 35.681C66.9364 34.318 67.8624 33.0342 69.2253 32.8134C70.5883 32.5927 71.8721 33.5186 72.0929 34.8815C72.3671 36.5747 72.5032 38.2873 72.5 40.0025C72.4995 46.4295 70.5935 52.7121 67.0228 58.056C63.4516 63.4006 58.3758 67.5662 52.4372 70.0261C46.4986 72.4859 39.964 73.1295 33.6596 71.8755C27.3552 70.6215 21.5643 67.5262 17.019 62.981C12.4738 58.4358 9.37851 52.6448 8.12449 46.3404C6.87047 40.0361 7.51408 33.5014 9.97393 27.5628C12.4338 21.6242 16.5994 16.5484 21.944 12.9772C27.2879 9.40655 33.5705 7.50048 39.9976 7.5M72.5 40.0025C72.5 40.0033 72.5 40.0041 72.5 40.0049L70 40H72.5C72.5 40.0008 72.5 40.0017 72.5 40.0025Z" fill="#7758D1"/>
</svg>
