<svg width="23" height="20" viewBox="0 0 23 20" fill="none" xmlns="http://www.w3.org/2000/svg">
<path fill-rule="evenodd" clip-rule="evenodd" d="M12.1519 2.49772C12.412 2.40559 12.7115 2.45651 12.9106 2.62675L21.2645 9.76961C21.5364 10.0021 21.5364 10.3789 21.2645 10.6114L12.9106 17.7543C12.7115 17.9245 12.412 17.9754 12.1519 17.8833C11.8918 17.7912 11.7222 17.5741 11.7222 17.3334V14.3572H9.63366C9.24918 14.3572 8.9375 14.0907 8.9375 13.7619V6.61908C8.9375 6.29034 9.24918 6.02384 9.63366 6.02384H11.7222V3.04765C11.7222 2.8069 11.8918 2.58985 12.1519 2.49772ZM13.1145 4.48468V6.61908C13.1145 6.94782 12.8028 7.21431 12.4183 7.21431H10.3298V13.1667H12.4183C12.8028 13.1667 13.1145 13.4332 13.1145 13.7619V15.8963L19.7878 10.1905L13.1145 4.48468Z" fill="#222226"/>
<path fill-rule="evenodd" clip-rule="evenodd" d="M12.1519 2.49772C12.412 2.40559 12.7115 2.45651 12.9106 2.62675L21.2645 9.76961C21.5364 10.0021 21.5364 10.3789 21.2645 10.6114L12.9106 17.7543C12.7115 17.9245 12.412 17.9754 12.1519 17.8833C11.8918 17.7912 11.7222 17.5741 11.7222 17.3334V14.3572H9.63366C9.24918 14.3572 8.9375 14.0907 8.9375 13.7619V6.61908C8.9375 6.29034 9.24918 6.02384 9.63366 6.02384H11.7222V3.04765C11.7222 2.8069 11.8918 2.58985 12.1519 2.49772ZM13.1145 4.48468V6.61908C13.1145 6.94782 12.8028 7.21431 12.4183 7.21431H10.3298V13.1667H12.4183C12.8028 13.1667 13.1145 13.4332 13.1145 13.7619V15.8963L19.7878 10.1905L13.1145 4.48468Z" stroke="#222226" stroke-linecap="round" stroke-linejoin="round"/>
<path fill-rule="evenodd" clip-rule="evenodd" d="M12.1519 2.49772C12.412 2.40559 12.7115 2.45651 12.9106 2.62675L21.2645 9.76961C21.5364 10.0021 21.5364 10.3789 21.2645 10.6114L12.9106 17.7543C12.7115 17.9245 12.412 17.9754 12.1519 17.8833C11.8918 17.7912 11.7222 17.5741 11.7222 17.3334V14.3572H9.63366C9.24918 14.3572 8.9375 14.0907 8.9375 13.7619V6.61908C8.9375 6.29034 9.24918 6.02384 9.63366 6.02384H11.7222V3.04765C11.7222 2.8069 11.8918 2.58985 12.1519 2.49772ZM13.1145 4.48468V6.61908C13.1145 6.94782 12.8028 7.21431 12.4183 7.21431H10.3298V13.1667H12.4183C12.8028 13.1667 13.1145 13.4332 13.1145 13.7619V15.8963L19.7878 10.1905L13.1145 4.48468Z" stroke="#222226" stroke-linecap="round" stroke-linejoin="round"/>
<path fill-rule="evenodd" clip-rule="evenodd" d="M12.1519 2.49772C12.412 2.40559 12.7115 2.45651 12.9106 2.62675L21.2645 9.76961C21.5364 10.0021 21.5364 10.3789 21.2645 10.6114L12.9106 17.7543C12.7115 17.9245 12.412 17.9754 12.1519 17.8833C11.8918 17.7912 11.7222 17.5741 11.7222 17.3334V14.3572H9.63366C9.24918 14.3572 8.9375 14.0907 8.9375 13.7619V6.61908C8.9375 6.29034 9.24918 6.02384 9.63366 6.02384H11.7222V3.04765C11.7222 2.8069 11.8918 2.58985 12.1519 2.49772ZM13.1145 4.48468V6.61908C13.1145 6.94782 12.8028 7.21431 12.4183 7.21431H10.3298V13.1667H12.4183C12.8028 13.1667 13.1145 13.4332 13.1145 13.7619V15.8963L19.7878 10.1905L13.1145 4.48468Z" stroke="#222226" stroke-linecap="round" stroke-linejoin="round"/>
<path fill-rule="evenodd" clip-rule="evenodd" d="M12.1519 2.49772C12.412 2.40559 12.7115 2.45651 12.9106 2.62675L21.2645 9.76961C21.5364 10.0021 21.5364 10.3789 21.2645 10.6114L12.9106 17.7543C12.7115 17.9245 12.412 17.9754 12.1519 17.8833C11.8918 17.7912 11.7222 17.5741 11.7222 17.3334V14.3572H9.63366C9.24918 14.3572 8.9375 14.0907 8.9375 13.7619V6.61908C8.9375 6.29034 9.24918 6.02384 9.63366 6.02384H11.7222V3.04765C11.7222 2.8069 11.8918 2.58985 12.1519 2.49772ZM13.1145 4.48468V6.61908C13.1145 6.94782 12.8028 7.21431 12.4183 7.21431H10.3298V13.1667H12.4183C12.8028 13.1667 13.1145 13.4332 13.1145 13.7619V15.8963L19.7878 10.1905L13.1145 4.48468Z" stroke="#222226" stroke-linecap="round" stroke-linejoin="round"/>
<path fill-rule="evenodd" clip-rule="evenodd" d="M12.1519 2.49772C12.412 2.40559 12.7115 2.45651 12.9106 2.62675L21.2645 9.76961C21.5364 10.0021 21.5364 10.3789 21.2645 10.6114L12.9106 17.7543C12.7115 17.9245 12.412 17.9754 12.1519 17.8833C11.8918 17.7912 11.7222 17.5741 11.7222 17.3334V14.3572H9.63366C9.24918 14.3572 8.9375 14.0907 8.9375 13.7619V6.61908C8.9375 6.29034 9.24918 6.02384 9.63366 6.02384H11.7222V3.04765C11.7222 2.8069 11.8918 2.58985 12.1519 2.49772ZM13.1145 4.48468V6.61908C13.1145 6.94782 12.8028 7.21431 12.4183 7.21431H10.3298V13.1667H12.4183C12.8028 13.1667 13.1145 13.4332 13.1145 13.7619V15.8963L19.7878 10.1905L13.1145 4.48468Z" stroke="#222226" stroke-linecap="round" stroke-linejoin="round"/>
<path fill-rule="evenodd" clip-rule="evenodd" d="M4.0653 6.02393C4.44978 6.02393 4.76147 6.29042 4.76147 6.61916V13.762C4.76147 14.0908 4.44978 14.3573 4.0653 14.3573C3.68082 14.3573 3.36914 14.0908 3.36914 13.762V6.61916C3.36914 6.29042 3.68082 6.02393 4.0653 6.02393Z" fill="#222226" stroke="#222226" stroke-linecap="round" stroke-linejoin="round"/>
<path fill-rule="evenodd" clip-rule="evenodd" d="M6.84851 6.02393C7.23299 6.02393 7.54467 6.29042 7.54467 6.61916V13.762C7.54467 14.0908 7.23299 14.3573 6.84851 14.3573C6.46403 14.3573 6.15234 14.0908 6.15234 13.762V6.61916C6.15234 6.29042 6.46403 6.02393 6.84851 6.02393Z" fill="#222226" stroke="#222226" stroke-linecap="round" stroke-linejoin="round"/>
</svg>
