<svg width="88" height="85" viewBox="0 0 88 85" fill="none" xmlns="http://www.w3.org/2000/svg">
<path fill-rule="evenodd" clip-rule="evenodd" d="M10 20C10 17.2386 12.2386 15 15 15H65C67.7614 15 70 17.2386 70 20V70C70 72.7614 67.7614 75 65 75H15C12.2386 75 10 72.7614 10 70V20ZM65 20H15V70H65V20Z" fill="#7758D1"/>
<path fill-rule="evenodd" clip-rule="evenodd" d="M50.5689 38.9234C51.1805 38.6673 51.837 38.5354 52.5 38.5354C53.163 38.5354 53.8195 38.6673 54.4311 38.9234C55.0391 39.178 55.5908 39.5503 56.0544 40.0188L69.2678 53.2322C70.2441 54.2085 70.2441 55.7915 69.2678 56.7678C68.2915 57.7441 66.7085 57.7441 65.7322 56.7678L52.4999 43.5355L52.4866 43.5491L38.5546 57.4809C38.091 57.9496 37.5392 58.322 36.9311 58.5766C36.3195 58.8327 35.6631 58.9646 35 58.9646C34.3369 58.9646 33.6805 58.8327 33.0689 58.5766C32.4607 58.322 31.9089 57.9495 31.4453 57.4808L24.9999 51.0355L24.9866 51.0491L14.2678 61.7678C13.2915 62.7441 11.7085 62.7441 10.7322 61.7678C9.75592 60.7915 9.75592 59.2085 10.7322 58.2322L21.4454 47.5191C21.909 47.0504 22.4608 46.678 23.0689 46.4234C23.6805 46.1673 24.3369 46.0354 25 46.0354C25.6631 46.0354 26.3195 46.1673 26.9311 46.4234C27.5393 46.678 28.091 47.0504 28.5547 47.5191L35.0001 53.9645L35.0134 53.9509L48.9454 40.019C49.409 39.5504 49.9608 39.178 50.5689 38.9234Z" fill="#7758D1"/>
<path d="M31.25 37.5C33.3211 37.5 35 35.8211 35 33.75C35 31.6789 33.3211 30 31.25 30C29.1789 30 27.5 31.6789 27.5 33.75C27.5 35.8211 29.1789 37.5 31.25 37.5Z" fill="#7758D1"/>
<ellipse cx="70" cy="18.5" rx="18" ry="18.5" fill="#44444C"/>
<path fill-rule="evenodd" clip-rule="evenodd" d="M67.75 11C68.9926 11 70 12.1193 70 13.5V28.5C70 29.8807 68.9926 31 67.75 31C66.5074 31 65.5 29.8807 65.5 28.5V13.5C65.5 12.1193 66.5074 11 67.75 11Z" fill="#7758D1"/>
<path fill-rule="evenodd" clip-rule="evenodd" d="M58 21C58 19.6193 59.1193 18.5 60.5 18.5H75.5C76.8807 18.5 78 19.6193 78 21C78 22.3807 76.8807 23.5 75.5 23.5H60.5C59.1193 23.5 58 22.3807 58 21Z" fill="#7758D1"/>
</svg>
