<svg width="10" height="10" viewBox="0 0 10 10" fill="none" xmlns="http://www.w3.org/2000/svg">
<path fill-rule="evenodd" clip-rule="evenodd" d="M8.12849 1.10189C8.23492 1.0711 8.34765 1.06934 8.45501 1.0968C8.56295 1.12441 8.66148 1.18055 8.74027 1.25934C8.81905 1.33812 8.8752 1.43665 8.90281 1.5446C8.93027 1.65196 8.92851 1.76471 8.89771 1.87114L6.84793 9.14881C6.84781 9.14925 6.84769 9.14969 6.84757 9.15013C6.81353 9.27356 6.7424 9.38357 6.64379 9.46526C6.54483 9.54725 6.423 9.59674 6.2949 9.60699C6.16679 9.61724 6.03864 9.58775 5.9279 9.52253C5.81797 9.4578 5.73051 9.36098 5.67722 9.24511L4.09617 5.90343L0.754486 4.32238C0.638621 4.2691 0.541808 4.18163 0.477071 4.0717C0.411858 3.96096 0.382368 3.83281 0.392616 3.70471C0.402864 3.5766 0.452353 3.45477 0.534342 3.35581C0.616033 3.25721 0.72603 3.18609 0.849444 3.15205C0.849895 3.15192 0.850346 3.1518 0.850797 3.15168L8.12849 1.10189ZM8.21446 1.40233L8.29877 1.70166C8.29917 1.70196 8.29963 1.70218 8.30012 1.7023C8.3008 1.70247 8.30151 1.70246 8.30218 1.70227L8.21446 1.40233ZM8.29542 1.70419L1.01564 3.75456L1.01999 3.75657L4.36278 5.33815C4.49437 5.39948 4.60012 5.50524 4.66145 5.63682L6.24303 8.97962L6.24506 8.98398L6.24569 8.98167L8.29542 1.70419Z" fill="#E39DE5"/>
<path fill-rule="evenodd" clip-rule="evenodd" d="M6.31863 3.68137C6.44067 3.80341 6.44067 4.00128 6.31863 4.12331L4.553 5.88894C4.43096 6.01098 4.2331 6.01098 4.11106 5.88894C3.98902 5.7669 3.98902 5.56904 4.11106 5.447L5.87669 3.68137C5.99872 3.55933 6.19659 3.55933 6.31863 3.68137Z" fill="#E39DE5"/>
</svg>
