<svg width="100" height="100" viewBox="0 0 100 100" fill="none" xmlns="http://www.w3.org/2000/svg">
<path fill-rule="evenodd" clip-rule="evenodd" d="M42.1138 18.4447C40.9708 19.4343 39.6017 20.4764 38.036 21.1276C36.4586 21.7837 34.7548 22.0071 33.2549 22.1057C32.2729 22.1702 31.1771 22.1877 30.1784 22.2037C29.7045 22.2112 29.2524 22.2184 28.8447 22.2302C25.8408 22.3166 24.3117 22.6859 23.4988 23.4988C22.6905 24.3071 22.336 25.7907 22.2597 28.7761C22.25 29.1585 22.2441 29.5779 22.238 30.0176C22.2238 31.0378 22.2082 32.1672 22.1382 33.1961C22.0347 34.7178 21.7983 36.4344 21.1246 38.0431C20.4579 39.635 19.4154 41.0171 18.4147 42.1763C17.732 42.9672 16.9445 43.7892 16.2298 44.5353C15.9256 44.8527 15.6347 45.1564 15.3706 45.4381C14.4052 46.4679 13.6591 47.3423 13.1515 48.1657C12.6565 48.9687 12.5 49.547 12.5 50C12.5 50.4487 12.6582 51.0366 13.164 51.8587C13.6798 52.6971 14.436 53.5879 15.4045 54.6254C15.6813 54.922 15.9885 55.2435 16.3093 55.5793C17.0133 56.3162 17.7834 57.1223 18.4447 57.8862C19.4343 59.0292 20.4764 60.3983 21.1276 61.964C21.7837 63.5414 22.0071 65.2452 22.1057 66.7451C22.1702 67.7271 22.1877 68.8229 22.2037 69.8216C22.2112 70.2955 22.2184 70.7476 22.2302 71.1553C22.3166 74.1592 22.6859 75.6884 23.4988 76.5012C24.3071 77.3095 25.7907 77.664 28.7761 77.7403C29.1585 77.7501 29.578 77.7559 30.0178 77.762C31.0379 77.7762 32.1672 77.7918 33.1961 77.8618C34.7178 77.9653 36.4344 78.2017 38.0431 78.8754C39.635 79.5421 41.0171 80.5846 42.1763 81.5853C42.9672 82.268 43.7892 83.0555 44.5352 83.7702C44.8527 84.0743 45.1564 84.3653 45.4381 84.6294C46.4679 85.5948 47.3423 86.3409 48.1657 86.8485C48.9687 87.3435 49.547 87.5 50 87.5C50.4487 87.5 51.0366 87.3418 51.8587 86.836C52.6971 86.3202 53.5879 85.564 54.6254 84.5955C54.922 84.3187 55.2434 84.0115 55.5793 83.6907C56.3162 82.9867 57.1223 82.2166 57.8862 81.5553C59.0292 80.5657 60.3983 79.5236 61.964 78.8724C63.5414 78.2164 65.2452 77.9929 66.7451 77.8943C67.7271 77.8298 68.8228 77.8123 69.8215 77.7963C70.2954 77.7888 70.7475 77.7816 71.1553 77.7698C74.1592 77.6834 75.6884 77.3141 76.5012 76.5012C77.3095 75.6929 77.664 74.2093 77.7403 71.2239C77.7501 70.8415 77.7559 70.422 77.762 69.9822C77.7762 68.9621 77.7918 67.8328 77.8618 66.8039C77.9653 65.2822 78.2017 63.5656 78.8754 61.9569C79.5421 60.365 80.5846 58.9829 81.5853 57.8237C82.268 57.0328 83.0555 56.2108 83.7702 55.4648C84.0743 55.1473 84.3653 54.8436 84.6294 54.5619C85.5948 53.5321 86.3409 52.6577 86.8485 51.8343C87.3435 51.0313 87.5 50.453 87.5 50C87.5 49.5513 87.3418 48.9634 86.836 48.1413C86.3202 47.3029 85.564 46.4121 84.5955 45.3746C84.3187 45.078 84.0115 44.7566 83.6907 44.4207C82.9867 43.6838 82.2166 42.8777 81.5553 42.1138C80.5657 40.9708 79.5236 39.6017 78.8724 38.036C78.2164 36.4586 77.9929 34.7548 77.8943 33.2549C77.8298 32.2729 77.8123 31.1772 77.7963 30.1785C77.7888 29.7046 77.7816 29.2525 77.7698 28.8447C77.6834 25.8408 77.3141 24.3117 76.5012 23.4988C75.6929 22.6905 74.2093 22.336 71.2239 22.2597C70.8415 22.25 70.4221 22.2441 69.9824 22.238C68.9622 22.2238 67.8328 22.2082 66.8039 22.1382C65.2822 22.0347 63.5656 21.7983 61.9569 21.1246C60.365 20.4579 58.9829 19.4154 57.8237 18.4147C57.0328 17.732 56.2108 16.9445 55.4647 16.2298C55.1473 15.9256 54.8436 15.6347 54.5619 15.3706C53.5321 14.4052 52.6577 13.6591 51.8343 13.1515C51.0313 12.6565 50.453 12.5 50 12.5C49.5513 12.5 48.9634 12.6582 48.1413 13.164C47.3029 13.6798 46.4121 14.436 45.3746 15.4045C45.078 15.6813 44.7565 15.9885 44.4207 16.3093C43.6838 17.0133 42.8777 17.7834 42.1138 18.4447ZM44.8665 7.84064C46.2807 6.97067 48.0073 6.25 50 6.25C51.9884 6.25 53.705 6.9626 55.114 7.83116C56.5024 8.68707 57.757 9.79894 58.8365 10.811C59.2295 11.1795 59.5922 11.5272 59.9389 11.8596C60.6207 12.5133 61.2406 13.1078 61.9078 13.6837C62.8824 14.525 63.6779 15.0694 64.3712 15.3598C65.0477 15.6431 65.9678 15.8169 67.228 15.9026C68.0886 15.9611 68.923 15.9722 69.8471 15.9846C70.3293 15.991 70.836 15.9978 71.3835 16.0118C74.1305 16.082 78.1352 16.2939 80.9206 19.0794C83.7015 21.8602 83.9377 25.8975 84.0173 28.665C84.0343 29.2564 84.0424 29.7975 84.0502 30.3104C84.0636 31.2015 84.0758 32.0076 84.1308 32.845C84.2142 34.1124 84.3813 35.0062 84.6432 35.6358C84.91 36.2772 85.4353 37.0467 86.2804 38.0229C86.8446 38.6746 87.4243 39.2806 88.062 39.9473C88.4099 40.311 88.775 40.6927 89.1643 41.1098C90.1831 42.2012 91.2994 43.4686 92.1594 44.8665C93.0293 46.2807 93.75 48.0073 93.75 50C93.75 51.9884 93.0374 53.705 92.1688 55.114C91.3129 56.5024 90.2011 57.757 89.189 58.8365C88.8206 59.2295 88.4728 59.5922 88.1404 59.9389C87.4867 60.6207 86.8922 61.2406 86.3163 61.9078C85.475 62.8824 84.9306 63.6779 84.6402 64.3712C84.3569 65.0477 84.1831 65.9678 84.0974 67.228C84.0389 68.0886 84.0278 68.923 84.0154 69.847C84.009 70.3293 84.0022 70.836 83.9882 71.3835C83.918 74.1305 83.7061 78.1352 80.9206 80.9206C78.1398 83.7015 74.1025 83.9377 71.335 84.0173C70.7436 84.0343 70.2025 84.0424 69.6896 84.0502C68.7985 84.0636 67.9924 84.0758 67.155 84.1308C65.8876 84.2142 64.9938 84.3813 64.3642 84.6432C63.7228 84.91 62.9533 85.4353 61.9771 86.2804C61.3254 86.8446 60.7194 87.4243 60.0527 88.062C59.689 88.4099 59.3073 88.775 58.8902 89.1643C57.7988 90.1831 56.5314 91.2994 55.1335 92.1594C53.7193 93.0293 51.9927 93.75 50 93.75C48.0116 93.75 46.295 93.0374 44.886 92.1688C43.4976 91.3129 42.243 90.2011 41.1635 89.189C40.7705 88.8205 40.4078 88.4728 40.0611 88.1404C39.3793 87.4867 38.7594 86.8922 38.0922 86.3163C37.1176 85.475 36.3221 84.9306 35.6288 84.6402C34.9523 84.3569 34.0322 84.1831 32.772 84.0974C31.9114 84.0389 31.077 84.0278 30.153 84.0154C29.6707 84.009 29.164 84.0022 28.6165 83.9882C25.8695 83.918 21.8648 83.7061 19.0794 80.9206C16.2985 78.1398 16.0623 74.1025 15.9827 71.335C15.9657 70.7436 15.9576 70.2025 15.9498 69.6896C15.9364 68.7985 15.9242 67.9924 15.8692 67.155C15.7859 65.8876 15.6187 64.9938 15.3568 64.3642C15.0901 63.7228 14.5647 62.9533 13.7196 61.9771C13.1554 61.3254 12.5757 60.7194 11.938 60.0527C11.5901 59.689 11.225 59.3073 10.8357 58.8902C9.81693 57.7988 8.70058 56.5314 7.84064 55.1335C6.97067 53.7193 6.25 51.9927 6.25 50C6.25 48.0116 6.9626 46.295 7.83116 44.886C8.68707 43.4976 9.79894 42.243 10.811 41.1635C11.1795 40.7705 11.5272 40.4078 11.8596 40.0611C12.5133 39.3793 13.1078 38.7594 13.6837 38.0922C14.525 37.1176 15.0694 36.3221 15.3598 35.6288C15.6431 34.9523 15.8169 34.0322 15.9026 32.772C15.9611 31.9114 15.9722 31.077 15.9846 30.1529C15.991 29.6707 15.9978 29.164 16.0118 28.6165C16.082 25.8695 16.2939 21.8648 19.0794 19.0794C21.8602 16.2985 25.8975 16.0623 28.665 15.9827C29.2564 15.9657 29.7975 15.9576 30.3104 15.9498C31.2015 15.9364 32.0076 15.9242 32.845 15.8692C34.1124 15.7859 35.0062 15.6187 35.6358 15.3568C36.2772 15.0901 37.0467 14.5647 38.0229 13.7196C38.6746 13.1554 39.2806 12.5757 39.9473 11.938C40.311 11.5901 40.6927 11.225 41.1098 10.8357C42.2012 9.81693 43.4686 8.70058 44.8665 7.84064Z" fill="#7758D1"/>
<path fill-rule="evenodd" clip-rule="evenodd" d="M69.4486 38.4679C70.6399 39.7167 70.5934 41.6948 69.3446 42.8861L46.4149 64.7611C45.2068 65.9137 43.306 65.9129 42.0988 64.7593L30.6535 53.8218C29.4057 52.6294 29.3609 50.6512 30.5532 49.4035C31.7456 48.1557 33.7238 48.1109 34.9715 49.3032L44.2597 58.1793L65.0304 38.3639C66.2792 37.1726 68.2573 37.2191 69.4486 38.4679Z" fill="#7758D1"/>
</svg>
