<svg width="32" height="32" viewBox="0 0 32 32" fill="none" xmlns="http://www.w3.org/2000/svg">
<path fill-rule="evenodd" clip-rule="evenodd" d="M16 11C13.7909 11 12 12.7909 12 15C12 17.2091 13.7909 19 16 19C18.2091 19 20 17.2091 20 15C20 12.7909 18.2091 11 16 11ZM10 15C10 11.6863 12.6863 9 16 9C19.3137 9 22 11.6863 22 15C22 18.3137 19.3137 21 16 21C12.6863 21 10 18.3137 10 15Z" fill="white" fill-opacity="0.68"/>
<path fill-rule="evenodd" clip-rule="evenodd" d="M15.9998 20.9992C14.5225 20.9992 13.074 21.4083 11.8149 22.1812C10.5558 22.954 9.53528 24.0604 8.86649 25.3777C8.61648 25.8701 8.01458 26.0667 7.52213 25.8167C7.02968 25.5667 6.83314 24.9648 7.08316 24.4723C7.91914 22.8257 9.19477 21.4427 10.7686 20.4766C12.3425 19.5106 14.1531 18.9992 15.9998 18.9992C17.8465 18.9992 19.6572 19.5106 21.231 20.4766C22.8049 21.4427 24.0805 22.8257 24.9165 24.4723C25.1665 24.9648 24.97 25.5667 24.4775 25.8167C23.9851 26.0667 23.3832 25.8701 23.1332 25.3777C22.4644 24.0604 21.4439 22.954 20.1848 22.1812C18.9257 21.4083 17.4772 20.9992 15.9998 20.9992Z" fill="white" fill-opacity="0.68"/>
<path fill-rule="evenodd" clip-rule="evenodd" d="M25 6C24.4477 6 24 6.44772 24 7C24 7.55228 24.4477 8 25 8C25.5523 8 26 7.55228 26 7C26 6.44772 25.5523 6 25 6ZM22 7C22 5.34315 23.3431 4 25 4C26.6569 4 28 5.34315 28 7C28 8.65685 26.6569 10 25 10C23.3431 10 22 8.65685 22 7Z" fill="white" fill-opacity="0.68"/>
<path fill-rule="evenodd" clip-rule="evenodd" d="M25 2.5C25.5523 2.5 26 2.94772 26 3.5V5C26 5.55228 25.5523 6 25 6C24.4477 6 24 5.55228 24 5V3.5C24 2.94772 24.4477 2.5 25 2.5Z" fill="white" fill-opacity="0.68"/>
<path fill-rule="evenodd" clip-rule="evenodd" d="M21.1107 4.74665C21.3887 4.26943 22.0009 4.10793 22.4781 4.38592L23.7656 5.13592C24.2428 5.41391 24.4043 6.02613 24.1264 6.50335C23.8484 6.98057 23.2361 7.14208 22.7589 6.86409L21.4714 6.11409C20.9942 5.83609 20.8327 5.22387 21.1107 4.74665Z" fill="white" fill-opacity="0.68"/>
<path fill-rule="evenodd" clip-rule="evenodd" d="M24.1264 7.49665C24.4043 7.97387 24.2428 8.58609 23.7656 8.86409L22.4781 9.61409C22.0009 9.89208 21.3887 9.73057 21.1107 9.25335C20.8327 8.77613 20.9942 8.16391 21.4714 7.88592L22.7589 7.13592C23.2361 6.85793 23.8484 7.01943 24.1264 7.49665Z" fill="white" fill-opacity="0.68"/>
<path fill-rule="evenodd" clip-rule="evenodd" d="M25 8C25.5523 8 26 8.44772 26 9V10.5C26 11.0523 25.5523 11.5 25 11.5C24.4477 11.5 24 11.0523 24 10.5V9C24 8.44772 24.4477 8 25 8Z" fill="white" fill-opacity="0.68"/>
<path fill-rule="evenodd" clip-rule="evenodd" d="M25.8734 7.49665C26.1514 7.01943 26.7636 6.85793 27.2408 7.13592L28.5283 7.88592C29.0055 8.16391 29.167 8.77613 28.8891 9.25335C28.6111 9.73057 27.9988 9.89208 27.5216 9.61409L26.2341 8.86409C25.7569 8.58609 25.5954 7.97387 25.8734 7.49665Z" fill="white" fill-opacity="0.68"/>
<path fill-rule="evenodd" clip-rule="evenodd" d="M28.8891 4.74665C29.167 5.22387 29.0055 5.83609 28.5283 6.11409L27.2408 6.86409C26.7636 7.14208 26.1514 6.98057 25.8734 6.50335C25.5954 6.02613 25.7569 5.41391 26.2341 5.13592L27.5216 4.38592C27.9988 4.10793 28.6111 4.26943 28.8891 4.74665Z" fill="white" fill-opacity="0.68"/>
<path fill-rule="evenodd" clip-rule="evenodd" d="M17.0165 5.04538C16.6808 5.01301 16.3436 4.99785 16.0063 4.99998L16 5.00002V5C13.8244 5 11.6977 5.64514 9.88873 6.85383C8.07979 8.06253 6.66989 9.78049 5.83733 11.7905C5.00477 13.8005 4.78693 16.0122 5.21137 18.146C5.63581 20.2798 6.68345 22.2398 8.22183 23.7782C9.76021 25.3166 11.7202 26.3642 13.854 26.7886C15.9878 27.2131 18.1995 26.9952 20.2095 26.1627C22.2195 25.3301 23.9375 23.9202 25.1462 22.1113C26.3549 20.3023 27 18.1756 27 16L27 15.9951C27.0022 15.5583 26.9756 15.1219 26.9205 14.6887C26.8508 14.1408 27.2384 13.6402 27.7863 13.5705C28.3342 13.5008 28.8348 13.8884 28.9045 14.4363C28.9706 14.9558 29.0025 15.479 29 16.0026C28.9995 18.5729 28.2371 21.0853 26.8091 23.2224C25.3807 25.3603 23.3503 27.0265 20.9749 28.0104C18.5995 28.9944 15.9856 29.2518 13.4638 28.7502C10.9421 28.2486 8.6257 27.0105 6.80762 25.1924C4.98953 23.3743 3.75141 21.0579 3.2498 18.5362C2.74819 16.0144 3.00563 13.4006 3.98957 11.0251C4.97351 8.64968 6.63975 6.61935 8.77759 5.19089C10.9146 3.76302 13.4268 3.00062 15.9969 3" fill="white" fill-opacity="0.68"/>
</svg>
