<svg width="98" height="80" viewBox="0 0 98 80" fill="none" xmlns="http://www.w3.org/2000/svg">
<path fill-rule="evenodd" clip-rule="evenodd" d="M3.96447 17.7145C4.90215 16.7768 6.17392 16.25 7.5 16.25H47.5C50.8152 16.25 53.9946 17.567 56.3388 19.9112C58.683 22.2554 60 25.4348 60 28.75V58.75C60 60.0761 59.4732 61.3478 58.5355 62.2855C57.5978 63.2232 56.3261 63.75 55 63.75H15C11.6848 63.75 8.50537 62.433 6.16117 60.0888C3.81696 57.7446 2.5 54.5652 2.5 51.25V21.25C2.5 19.9239 3.02678 18.6521 3.96447 17.7145ZM7.5 21.25V51.25C7.5 53.2391 8.29018 55.1468 9.6967 56.5533C11.1032 57.9598 13.0109 58.75 15 58.75H55V28.75C55 26.7609 54.2098 24.8532 52.8033 23.4467C51.3968 22.0402 49.4891 21.25 47.5 21.25L7.5 21.25Z" fill="#7758D1"/>
<path fill-rule="evenodd" clip-rule="evenodd" d="M76.2548 22.8377C77.0255 23.285 77.4999 24.1088 77.4999 25V55C77.4999 55.8912 77.0255 56.715 76.2548 57.1623C75.484 57.6096 74.5333 57.6128 73.7596 57.1706L56.2596 47.1706C55.0608 46.4856 54.6443 44.9584 55.3293 43.7597C56.0144 42.5609 57.5415 42.1444 58.7403 42.8294L72.4999 50.6921V29.3079L58.7403 37.1706C57.5415 37.8556 56.0144 37.4391 55.3293 36.2403C54.6443 35.0416 55.0608 33.5144 56.2596 32.8294L73.7596 22.8294C74.5333 22.3872 75.484 22.3904 76.2548 22.8377Z" fill="#7758D1"/>
<ellipse cx="80" cy="20.5" rx="18" ry="18.5" fill="#44444C"/>
<path fill-rule="evenodd" clip-rule="evenodd" d="M74.75 13C75.9926 13 77 14.1193 77 15.5V30.5C77 31.8807 75.9926 33 74.75 33C73.5074 33 72.5 31.8807 72.5 30.5V15.5C72.5 14.1193 73.5074 13 74.75 13Z" fill="#7758D1"/>
<path fill-rule="evenodd" clip-rule="evenodd" d="M65 23C65 21.6193 66.1193 20.5 67.5 20.5H82.5C83.8807 20.5 85 21.6193 85 23C85 24.3807 83.8807 25.5 82.5 25.5H67.5C66.1193 25.5 65 24.3807 65 23Z" fill="#7758D1"/>
</svg>
