<svg width="15" height="15" viewBox="0 0 15 15" fill="none" xmlns="http://www.w3.org/2000/svg">
<path fill-rule="evenodd" clip-rule="evenodd" d="M3.75 2.34375C3.75 2.08487 3.95987 1.875 4.21875 1.875H12.6562C12.9151 1.875 13.125 2.08487 13.125 2.34375V10.7812C13.125 11.0401 12.9151 11.25 12.6562 11.25C12.3974 11.25 12.1875 11.0401 12.1875 10.7812V2.8125H4.21875C3.95987 2.8125 3.75 2.60263 3.75 2.34375Z" fill="white" fill-opacity="0.5"/>
<path fill-rule="evenodd" clip-rule="evenodd" d="M1.875 4.21875C1.875 3.95987 2.08487 3.75 2.34375 3.75H10.7812C11.0401 3.75 11.25 3.95987 11.25 4.21875V12.6562C11.25 12.9151 11.0401 13.125 10.7812 13.125H2.34375C2.08487 13.125 1.875 12.9151 1.875 12.6562V4.21875ZM2.8125 4.6875V12.1875H10.3125V4.6875H2.8125Z" fill="white" fill-opacity="0.5"/>
</svg>
