<svg width="14" height="14" viewBox="0 0 14 14" fill="none" xmlns="http://www.w3.org/2000/svg">
<path d="M6.59903 0.849664C5.92226 0.784187 5.22518 0.75 4.51321 0.75C3.80123 0.75 3.10415 0.784187 2.42738 0.849665C1.68266 0.921717 1.11295 1.67654 1.07931 2.59563C1.02736 4.01513 1 5.48869 1 7C1 8.5113 1.02736 9.98487 1.07931 11.4044C1.11295 12.3235 1.68266 13.0783 2.42738 13.1503C3.10415 13.2158 3.80123 13.25 4.51321 13.25C5.22518 13.25 5.92226 13.2158 6.59903 13.1503C7.34374 13.0783 7.91345 12.3235 7.94709 11.4044C7.96563 10.8979 7.98103 10.3846 7.99318 9.86507V4.13496C7.98103 3.61546 7.96563 3.1021 7.94709 2.59563C7.91345 1.67654 7.34374 0.921715 6.59903 0.849664Z" fill="#1D203E"/>
<path d="M7.94709 2.59563C7.91346 1.67654 7.34374 0.921715 6.59903 0.849664C5.92226 0.784187 5.22518 0.75 4.51321 0.75C3.80123 0.75 3.10415 0.784187 2.42738 0.849665C1.68266 0.921717 1.11295 1.67654 1.07931 2.59563C1.02736 4.01513 1 5.48869 1 7C1 8.5113 1.02736 9.98487 1.07931 11.4044C1.11295 12.3235 1.68266 13.0783 2.42738 13.1503C3.10415 13.2158 3.80123 13.25 4.51321 13.25C5.22518 13.25 5.92226 13.2158 6.59903 13.1503C7.34374 13.0783 7.91346 12.3235 7.94709 11.4044" stroke="white" stroke-opacity="0.6" stroke-linecap="round"/>
<path d="M10.1753 9.96165C11.435 8.92952 12.0645 8.30017 13.0465 7.09039C12.0645 5.8806 11.435 5.25126 10.1753 4.21912" stroke="white" stroke-opacity="0.6" stroke-linecap="round" stroke-linejoin="round"/>
<path d="M4.15186 7.09058H13.0145" stroke="white" stroke-opacity="0.6" stroke-linecap="round" stroke-linejoin="round"/>
</svg>
