<svg width="20" height="20" viewBox="0 0 20 20" fill="none" xmlns="http://www.w3.org/2000/svg">
<g clip-path="url(#clip0_30_697)">
<path d="M10.0001 10.5097C11.6724 10.5097 13.028 9.15403 13.028 7.48174C13.028 5.80947 11.6724 4.45383 10.0001 4.45383C8.32783 4.45383 6.97217 5.80947 6.97217 7.48174C6.97217 9.15403 8.32783 10.5097 10.0001 10.5097Z" fill="white" fill-opacity="0.6" stroke="white" stroke-opacity="0.6" stroke-linecap="round" stroke-linejoin="round"/>
<path d="M14.9442 14.3769C14.6798 13.311 14.0772 12.3569 13.2239 11.6595C12.314 10.9158 11.1751 10.5096 9.99996 10.5096C8.82486 10.5096 7.68589 10.9158 6.77605 11.6595C5.92272 12.3569 5.32015 13.311 5.05566 14.3769C5.31126 14.4621 5.57816 14.5216 5.85321 14.5523C7.20238 14.7027 8.58765 14.8319 10 14.8319C11.4124 14.8319 12.7976 14.7027 14.1468 14.5523C14.4218 14.5216 14.6887 14.4621 14.9442 14.3769Z" fill="white" fill-opacity="0.6" stroke="white" stroke-opacity="0.6" stroke-linecap="round" stroke-linejoin="round"/>
<path d="M14.2954 1.34661C14.8251 1.40368 15.3501 1.46486 15.87 1.5251C17.2407 1.68396 18.3344 2.77696 18.4884 4.14822C18.5464 4.6647 18.6048 5.18631 18.6591 5.71266" stroke="white" stroke-opacity="0.6" stroke-linecap="round"/>
<path d="M14.2954 18.6534C14.8251 18.5963 15.3501 18.5351 15.87 18.4749C17.2407 18.316 18.3344 17.223 18.4884 15.8517C18.5464 15.3353 18.6048 14.8137 18.6591 14.2873" stroke="white" stroke-opacity="0.6" stroke-linecap="round"/>
<path d="M5.70461 1.34661C5.17482 1.40368 4.64981 1.46486 4.12997 1.5251C2.75927 1.68396 1.66557 2.77696 1.51161 4.14822C1.45362 4.6647 1.39516 5.18631 1.34082 5.71266" stroke="white" stroke-opacity="0.6" stroke-linecap="round"/>
<path d="M5.70461 18.6534C5.17482 18.5963 4.64981 18.5351 4.12997 18.4749C2.75927 18.316 1.66557 17.223 1.51161 15.8517C1.45362 15.3353 1.39516 14.8137 1.34082 14.2873" stroke="white" stroke-opacity="0.6" stroke-linecap="round"/>
</g>
<defs>
<clipPath id="clip0_30_697">
<rect width="20" height="20" fill="white"/>
</clipPath>
</defs>
</svg>
