<svg width="35" height="35" viewBox="0 0 35 35" fill="none" xmlns="http://www.w3.org/2000/svg">
<path fill-rule="evenodd" clip-rule="evenodd" d="M16.8248 3.36454C17.2335 3.53383 17.5 3.93265 17.5 4.37503V9.84378H20.7812C21.3853 9.84378 21.875 10.3335 21.875 10.9375V24.0625C21.875 24.6666 21.3853 25.1563 20.7812 25.1563H17.5V30.625C17.5 31.0674 17.2335 31.4662 16.8248 31.6355C16.4161 31.8048 15.9457 31.7112 15.6329 31.3984L2.50785 18.2734C2.08072 17.8463 2.08072 17.1538 2.50785 16.7266L15.6329 3.60163C15.9457 3.28882 16.4161 3.19525 16.8248 3.36454ZM4.82805 17.5L15.3125 27.9845V24.0625C15.3125 23.4585 15.8022 22.9688 16.4062 22.9688H19.6875V12.0313H16.4062C15.8022 12.0313 15.3125 11.5416 15.3125 10.9375V7.01558L4.82805 17.5Z" fill="white"/>
<path fill-rule="evenodd" clip-rule="evenodd" d="M29.5312 9.84375C30.1353 9.84375 30.625 10.3334 30.625 10.9375V24.0625C30.625 24.6666 30.1353 25.1562 29.5312 25.1562C28.9272 25.1562 28.4375 24.6666 28.4375 24.0625V10.9375C28.4375 10.3334 28.9272 9.84375 29.5312 9.84375Z" fill="white"/>
<path fill-rule="evenodd" clip-rule="evenodd" d="M25.1562 9.84375C25.7603 9.84375 26.25 10.3334 26.25 10.9375V24.0625C26.25 24.6666 25.7603 25.1562 25.1562 25.1562C24.5522 25.1562 24.0625 24.6666 24.0625 24.0625V10.9375C24.0625 10.3334 24.5522 9.84375 25.1562 9.84375Z" fill="white"/>
</svg>
